<?xml version="1.0" standalone="no"?>
<!DOCTYPE svg PUBLIC "-//W3C//DTD SVG 1.1//EN" "http://www.w3.org/Graphics/SVG/1.1/DTD/svg11.dtd" >
<svg xmlns="http://www.w3.org/2000/svg">
<metadata>Generated by IcoMoon</metadata>
<defs>
<font id="wbicon" horiz-adv-x="1024">
<font-face units-per-em="1024" ascent="960" descent="-64" />
<missing-glyph horiz-adv-x="1024" />
<glyph unicode="&#x20;" horiz-adv-x="512" d="" />
<glyph unicode="&#xe900;" glyph-name="edit" d="M918.144 418.88c-123.712-128.064-247.424-256.128-371.136-384.256-3.584-3.776-7.488-6.080-12.608-6.976-46.592-9.024-93.184-18.112-139.712-27.136-1.472-0.32-2.944-0.384-4.032-0.512-9.536-0.064-15.232 8-12.672 17.792 5.952 22.656 12.096 45.184 18.176 67.776 6.144 22.72 12.16 45.504 18.56 68.16 1.088 3.776 3.2 7.616 5.888 10.432 123.968 128.512 248.064 256.896 372.096 385.28 12.352 12.864 27.584 12.8 40-0.064 28.48-29.504 57.088-59.008 85.568-88.576 12.992-13.44 12.992-28.416-0.128-41.92zM862.208 399.68c-29.312 30.592-58.816 61.056-88.32 91.52-5.12 5.312-12.48 5.312-17.472 0.256-5.184-5.184-5.376-12.992-0.128-18.432 29.504-30.656 59.072-61.248 88.64-91.84 4.032-4.16 8.832-4.864 13.888-2.496 4.992 2.24 7.168 6.592 7.488 13.888-0.96 1.536-1.984 4.8-4.096 7.104zM843.776 632.128c-4.544 4.8-9.088 9.728-14.016 14.208-8.256 7.552-16.128 8.064-24.896 1.216-5.44-4.224-10.368-9.216-15.104-14.208-61.248-64.896-122.368-129.92-183.68-194.752-65.088-68.736-130.496-137.216-195.392-206.144-13.568-14.464-26.432-29.952-37.952-46.272-13.12-18.56-18.56-40.832-24.064-62.848-8.448-33.792-17.344-67.584-25.92-101.376-0.832-3.2-2.048-4.288-5.376-4.288-52.928 0.448-105.856 0.576-158.784 1.024-36.16 0.384-62.528 28.352-62.592 66.304 0 125.312 0 250.56 0 375.872 0 122.816 0 245.632 0 368.448 0 28.224 12.288 48.64 36.8 61.056 9.152 4.544 18.944 5.632 28.992 5.632 117.76 0 235.52 0 353.28 0 99.328 0 198.656-0.064 298.048 0.064 19.648 0 36.352-6.464 49.472-21.632 9.856-11.392 15.488-24.768 15.616-40.064 0.256-60.48 0.256-121.024 0.448-181.504 0.064-17.344 0.064-34.688 0.064-52.032 0-1.472-0.128-2.944-0.256-5.696-12.096 12.864-23.36 24.96-34.688 36.992zM203.2 537.024c2.56-9.344 9.856-14.656 20.544-14.656 37.056 0 74.112 0 111.168 0 30.848 0 61.696 0 92.48 0 7.424 0 14.848-0.192 22.208 0.192 11.392 0.704 19.52 12.352 17.088 23.808-2.176 10.304-9.728 16-21.312 16-73.664 0-147.328 0-220.992 0-1.344 0-2.688 0-4.032-0.064-12.096-0.832-20.416-13.184-17.152-25.28zM225.28 627.712c125.376 0 250.816 0 376.256 0 2.368 0 4.736 0.128 7.104 0.576 8.896 1.6 15.36 9.408 15.872 18.944 0.384 9.088-5.888 17.856-14.656 20.032-2.688 0.64-5.568 0.832-8.384 0.832-62.592 0.064-125.12 0-187.712 0-62.72 0-125.44 0-188.16 0-2.496 0-5.056-0.064-7.488-0.576-9.472-1.984-15.744-10.176-15.552-20.096 0.256-12.032 9.024-19.712 22.72-19.712zM728.576 763.968c-4.672 8.064-12.16 9.792-20.672 9.792-160.64-0.064-321.28 0-481.92-0.064-2.24 0-4.416-0.128-6.656-0.384-8.96-1.152-15.936-8.576-16.64-17.6-0.832-9.92 4.544-18.688 13.44-21.248 2.944-0.832 6.144-1.024 9.216-1.024 80.512 0 161.088 0 241.6 0 80.192 0 160.448 0 240.704 0 1.92 0 3.84 0 5.76 0.128 14.528 1.28 22.656 17.6 15.168 30.4z" />
<glyph unicode="&#xe901;" glyph-name="refer" d="M900.16 91.712c-38.272-38.592-89.344-59.776-143.872-59.776-54.208 0-105.28 21.184-143.808 59.776-38.592 38.4-59.712 89.472-59.712 143.936 0 54.336 21.12 105.408 59.712 143.936 38.336 38.592 89.408 59.776 143.808 59.776 54.272 0 105.344-21.184 143.872-59.776 38.4-38.336 59.52-89.6 59.776-143.936 0-54.272-21.184-105.408-59.776-143.936zM890.176 333.056c-6.72 6.528-17.216 6.528-23.68 0l-174.784-174.976-67.712 67.712c-6.656 6.528-17.216 6.528-23.68 0-6.528-6.72-6.528-17.216 0-23.744l79.36-79.36c3.136-3.136 7.552-4.8 11.776-4.8s8.384 1.408 11.776 4.8c0.192 0 0.192 0.256 0.384 0.448 0 0.192 0.256 0.192 0.448 0.448l185.536 185.6c6.464 6.528 6.464 17.024 0.576 23.872zM756.096 472.832c-31.808 0-62.784-6.272-92.096-18.688-21.376-8.96-41.088-20.864-58.624-35.584h-344.064c-8.384 0-15.296-6.912-15.296-15.296v-2.944c0-8.384 6.912-15.296 15.296-15.296h311.104c-14.016-17.344-25.472-36.48-34.304-57.216-12.288-29.12-18.624-60.096-18.624-92.16h-258.176c-8.384 0-15.296-6.912-15.296-15.296v-2.752c0-8.384 6.912-15.296 15.296-15.296h260.288c2.944-20.096 8.384-40 16.32-58.88 11.968-28.032 28.864-53.44 50.624-75.264 2.752-2.496 5.248-4.992 18.24-7.488h-470.080c-44.544 0-72.64 41.664-72.64 92.992v535.424c0 51.328 28.032 93.056 62.656 93.056h65.92v34.752c0 25.984 21.12 47.168 47.104 47.168h6.080c25.984 0 47.104-21.184 47.104-47.168v-34.752h329.344v34.752c0 25.984 21.12 47.168 47.104 47.168h6.144c25.92 0 47.104-21.184 47.104-47.168v-34.752h65.856c34.624 0 62.464-41.664 62.464-93.056v-236.16c-1.088 0.384-1.856 0.832-2.688 1.28-29.056 12.352-60.096 18.624-92.16 18.624zM161.216 607.552c-11.968 0-21.76-9.856-21.76-21.76s9.6-21.76 21.76-21.76c12.16 0 21.824 9.856 21.824 21.76s-9.92 21.76-21.824 21.76zM161.216 424.192c-11.968 0-21.76-9.6-21.76-21.76 0-11.968 9.6-21.824 21.76-21.824s22.016 9.856 21.824 21.824c-0.064 11.968-9.92 21.76-21.824 21.76zM161.216 239.616c-11.968 0-21.76-9.6-21.76-21.824 0-11.968 9.6-21.76 21.76-21.76s22.016 9.792 21.824 21.76c-0.064 12.032-9.92 21.824-21.824 21.824zM259.456 817.152c0 7.552-6.080 13.824-13.824 13.824h-6.080c-7.552 0-13.888-6.080-13.888-13.824v-107.328c0-7.552 6.144-13.824 13.888-13.824h6.080c7.488 0 13.824 6.080 13.824 13.824v107.328zM689.344 816.896c0 7.552-6.016 13.824-13.76 13.824h-6.144c-7.488 0-13.824-6.080-13.824-13.824v-107.264c0-7.552 6.080-13.824 13.824-13.824h6.144c7.488 0 13.76 6.080 13.76 13.824v107.264zM775.424 585.984c0 8.384-6.912 15.296-15.296 15.296h-498.816c-8.384 0-15.296-6.912-15.296-15.296v-2.944c0-8.384 6.912-15.296 15.296-15.296h498.816c8.384 0 15.296 6.912 15.296 15.296v2.944z" />
<glyph unicode="&#xe902;" glyph-name="filtrate" d="M945.344 882.24c-4.736 9.152-14.016 13.76-23.296 13.76h-821.184c-9.344 0-18.56-4.608-23.232-13.76s0-18.368 4.672-22.976l310.848-312.448c4.608-4.608 4.608-9.216 4.608-13.824v-381.376c0-9.216 4.672-13.76 9.344-18.368l74.176-55.104c9.344-9.28 23.232-4.608 32.512 4.608 9.28 9.152 4.608 22.912-4.608 32.128l-65.024 45.952v372.16c0 18.368-4.672 32.128-18.56 45.952l-269.12 271.104h709.888l-264.512-271.104c-13.824-13.76-18.496-27.584-18.496-45.952v-510.016c0-13.76 9.344-22.976 23.232-22.976s23.168 9.216 23.168 22.976v510.016c0 4.608 0 9.216 4.608 13.76l306.24 312.448c9.28 4.672 9.28 13.824 4.736 23.040z" />
<glyph unicode="&#xe903;" glyph-name="app" d="M503.040 532.416v-75.2h21.632c29.44 0 44.096 12.672 44.096 38.080 0 24.768-14.528 37.12-43.648 37.12h-22.080zM794.688 630.016v209.984c0 30.912-25.28 56-56.448 56h-451.52c-31.104 0-56.384-25.088-56.384-56v-209.984h-105.28v-350.016h105.28v-224c0-30.912 25.28-56 56.384-56h451.52c31.168 0 56.448 25.088 56.448 56v224h104.256v350.016h-104.256zM738.24 825.984v-196.032h-451.52v196.032h451.52zM621.44 497.28c0-23.808-8.832-42.944-26.432-57.344-17.664-14.464-39.68-21.312-66.176-20.736h-25.792v-81.216h-50.048v232.96h80.832c58.368 0 87.616-24.576 87.616-73.664v0zM259.328 391.36l-17.28-53.376h-54.208l85.952 232.96h58.816l84.224-232.96h-54.592l-17.536 53.376h-85.376zM512.512 27.968c-15.552 0-28.224 12.48-28.224 28.032s12.672 28.032 28.224 28.032 28.224-12.48 28.224-28.032-12.672-28.032-28.224-28.032v0zM738.24 112h-451.52v168h451.52v-168zM792.448 439.872c-17.6-14.4-39.68-21.248-66.112-20.672h-25.728v-81.216h-50.048v232.96h80.768c58.432 0 87.616-24.576 87.616-73.664-0.064-23.872-8.896-42.944-26.496-57.408v0zM722.624 532.416h-22.080v-75.2h21.632c29.44 0 44.096 12.672 44.096 38.080 0.064 24.768-14.528 37.12-43.648 37.12v0zM302.528 530.816h-1.408c-0.576-6.784-1.92-13.376-4.032-19.712l-26.816-81.344h62.656l-26.752 80.768c-1.728 5.12-2.944 11.84-3.648 20.288v0z" />
<glyph unicode="&#xe904;" glyph-name="bluetooths" d="M817.536 600.384c15.296 11.52 15.296 30.592 0 42.112l-301.44 230.464c-24.128 18.496-65.024 5.12-65.024-21.12v-289.28l-190.208 138.624c-2.688 2.112-7.104 1.92-9.728-0.192l-54.336-44.8c-2.624-1.984-2.368-5.44 0.256-7.488l254.016-185.024v-27.712l-253.76-183.168c-2.688-2.112-2.944-5.44-0.256-7.552l54.080-44.928c2.688-2.048 7.040-2.24 9.728-0.192l190.528 137.408v-293.312c0-26.304 40.832-39.744 64.96-21.248l301.248 230.144c14.976 11.584 14.976 30.656 0 42.368l-171.904 131.136c-14.976 11.584-14.976 30.656 0 42.304l171.84 131.456zM712 273.728l-167.68-128.128v245.76h-0.256l3.136 2.304 164.8-119.936zM545.024 503.68l-0.96 0.768v245.824l166.4-127.232-165.44-119.36z" />
<glyph unicode="&#xe905;" glyph-name="service" d="M510.976 781.76c-94.848 0-171.648-110.592-171.648-246.976s76.736-246.976 171.648-246.976c94.784 0 171.712 110.592 171.712 246.976s-76.864 246.976-171.712 246.976zM312.768 439.936v228.032c-2.176 0-4.416-0.064-6.528-0.384 35.2 112.256 113.6 190.4 204.736 190.4 91.2 0 169.6-78.144 204.672-190.4-2.048 0.192-4.224 0.384-6.464 0.384v-228.096c43.84 0 79.36 51.072 79.36 114.048 0 42.752-16.384 80-40.64 99.584-34.048 141.184-127.104 242.496-236.928 242.496s-202.88-101.312-236.928-242.56c-24.256-19.456-40.704-56.768-40.704-99.456 0-63.040 35.52-114.048 79.424-114.048zM682.304 309.056c-44.864-60.224-105.152-97.152-171.328-97.152-66.112 0-126.272 36.672-171.136 96.896-80.128-59.456-132.928-165.184-132.928-308.8h610.112c0.064 143.936-53.568 249.728-134.72 309.056z" />
<glyph unicode="&#xe906;" glyph-name="times" d="M828.8 764.672c-84.608 84.608-197.184 131.136-316.8 131.136-119.68 0-232.128-46.592-316.8-131.136-84.608-84.608-131.2-197.056-131.2-316.672 0-87.104 25.088-171.648 72.512-244.288 9.408-14.464 28.736-18.432 43.136-9.088s18.496 28.672 9.088 43.072c-40.832 62.528-62.4 135.296-62.4 210.304 0 212.544 172.992 385.472 385.664 385.472s385.664-172.928 385.664-385.472-172.992-385.472-385.664-385.472c-70.4 0-139.328 19.136-199.232 55.36-14.72 8.896-33.92 4.096-42.816-10.56-8.896-14.72-4.16-33.856 10.56-42.752 69.632-42.112 149.696-64.384 231.488-64.384 119.616 0 232.192 46.592 316.8 131.2 84.544 84.544 131.2 196.992 131.2 316.608s-46.656 232.064-131.2 316.672zM494.784 754.496c-21.824 0-39.488-17.6-39.488-39.424v-283.712c0-1.344 0.384-2.688 0.512-4.032 2.048-19.968 18.944-34.624 39.424-34.624l0.128 0.896h223.808c21.76 0 39.424 17.6 39.424 39.36 0 21.824-17.664 39.424-39.424 39.424h-184.96v242.688c0 21.824-17.664 39.424-39.424 39.424z" />
<glyph unicode="&#xe907;" glyph-name="more_wechart" d="M510.96 672.21c61.583 0 111.965 50.378 111.965 111.956 0 61.574-50.382 111.965-111.965 111.965-61.578 0-111.956-50.391-111.956-111.965 0-61.578 50.378-111.956 111.956-111.956zM510.96 560.25c-61.578 0-111.956-50.382-111.956-111.961 0-61.583 50.378-111.965 111.956-111.965 61.583 0 111.965 50.382 111.965 111.965 0 61.578-50.382 111.961-111.965 111.961zM510.96 224.363c-61.578 0-111.956-50.378-111.956-111.956s50.378-111.965 111.956-111.965c61.583 0 111.965 50.387 111.965 111.965s-50.382 111.956-111.965 111.956z" />
<glyph unicode="&#xe908;" glyph-name="remind" d="M516.557-43.52c-270.945 0-491.377 220.431-491.377 491.377 0 270.95 220.431 491.382 491.377 491.382s491.382-220.431 491.382-491.382c-0.010-270.945-220.436-491.377-491.382-491.377v0zM516.557 899.886c-249.252 0-452.035-202.778-452.035-452.035s202.783-452.035 452.035-452.035c249.257 0 452.040 202.778 452.040 452.035s-202.788 452.035-452.040 452.035v0zM488.75 304.184l-9.277 438.743h74.158l-6.175-438.743h-58.706zM482.57 223.846h67.973v-71.066h-67.973v71.066z" />
<glyph unicode="&#xe909;" d="M512-32h-390.976c-41.152 0-89.024 47.872-89.024 89.024v781.952c0 41.152 47.872 89.024 89.024 89.024h595.776c41.12 0 51.2-47.872 51.2-89.024v-166.976h64v194.912c0 51.424-35.872 93.088-87.264 93.088h-651.648c-51.424 0-93.088-41.664-93.088-93.088v-837.824c0-51.424 41.664-93.088 93.088-93.088h428.832c-0.352 3.072-9.92 6.144-9.92 9.312v22.688z" />
<glyph unicode="&#xe90a;" d="M672 688c0-8.832-7.168-16-16-16h-512c-8.832 0-16 7.168-16 16s7.168 16 16 16h512c8.832 0 16-7.168 16-16z" />
<glyph unicode="&#xe90b;" d="M353.76 480c0-12.864-4-32-8.928-32h-196.256c-4.928 0-8.928 19.136-8.928 32s4 32 8.928 32h196.256c4.928 0 8.928-19.136 8.928-32z" />
<glyph unicode="&#xe90c;" d="M409.6 256c0-12.864-5.056-32-11.264-32h-247.456c-6.208 0-11.264 19.136-11.264 32s5.056 32 11.264 32h247.456c6.208 0 11.264-19.136 11.264-32z" />
<glyph unicode="&#xe90d;" d="M744.736 569.024c-154.24 0-279.328-125.024-279.328-279.264s125.056-279.264 279.328-279.264c154.208 0 279.264 124.992 279.264 279.264s-125.024 279.264-279.264 279.264zM744.736 57.024c-128.576 0-232.736 104.192-232.736 232.704s104.192 232.736 232.736 232.736c128.512 0 232.672-104.224 232.672-232.736 0.032-128.512-104.16-232.704-232.672-232.704z" />
<glyph unicode="&#xe90e;" d="M709.568 217.248l145.504 145.568c8.8 8.8 23.168 8.8 32 0 8.8-8.864 8.8-23.232 0-32l-160-160.032c-0.288-0.256-0.544-0.512-0.768-0.736-0.224-0.256-0.48-0.512-0.704-0.768-8.832-8.8-23.2-8.8-32 0l-74.688 74.688c-8.832 8.8-8.832 23.2 0 32 8.8 8.8 23.168 8.8 32 0l58.656-58.72z" />
<glyph unicode="&#xe90f;" d="M1018.272 69.024c-9.728 17.824-133.184 235.584-139.392 246.24-15.872 27.2-44.672 43.872-76.096 44-31.52-0.128-60.608-17.056-76.128-44.608l-138.272-244.32c-15.744-28.096-15.584-62.4 0.384-89.536 15.84-26.88 44.704-44.8 75.968-44.8h276.768c30.784 0 59.52 17.312 75.168 43.872 15.904 27.008 16.48 61.664 1.6 89.152zM974.24 6.080c-12.544-21.088-35.552-38.080-60.224-38.080h-221.856c-25.088 0-48.192 17.504-60.928 38.848-12.768 21.536-12.864 49.888-0.288 72.192l110.848 195.072c12.48 21.856 35.744 35.84 60.992 35.968 25.152-0.128 48.288-13.088 60.992-34.656 4.96-8.512 103.968-183.392 111.712-197.568 11.968-21.856 11.488-50.336-1.248-71.776z" />
<glyph unicode="&#xe910;" d="M480 751.456v-52.672c64-30.816 94.336-83.072 94.336-142.368 0-74.112-30.336-137.056-94.336-161.088v-427.328h32v398.304c96 37.376 99.968 108.48 99.968 190.112 0 85.408-3.968 159.296-131.968 195.040z" />
<glyph unicode="&#xe911;" d="M194.752 556.448c0-81.632 61.248-152.736 93.248-190.080v-398.368h64v428.48c-64 24.832-100.512 87.008-100.512 159.968 0 65.728 36.512 122.752 100.512 151.584v51.648c-96-31.584-157.248-110.656-157.248-203.232z" />
<glyph unicode="&#xe912;" d="M320 768h64v-192h-64v192z" />
<glyph unicode="&#xe913;" d="M320 576h192v-64h-192v64z" />
<glyph unicode="&#xe914;" d="M480 768h32v-192h-32v192z" />
<glyph unicode="&#xe915;" d="M120.608 0c-40.992 0-56.608 19.104-56.608 60.096v779.296c0 40.992 15.616 56.608 56.608 56.608h593.76c40.96 0 85.632-15.616 85.632-56.608v-391.392h32v419.232c0 51.232-38.56 92.768-89.824 92.768h-649.408c-51.232 0-92.768-41.536-92.768-92.768v-834.976c0-51.232 41.536-96.256 92.768-96.256h419.232v64h-391.392z" />
<glyph unicode="&#xe916;" d="M791.84 221.024v-120.544c0-8.512 6.88-15.36 15.328-15.36 8.512 0 15.36 6.88 15.36 15.36v120.544c0 8.448-6.88 15.328-15.36 15.328-8.448 0-15.328-6.88-15.328-15.328zM788.576 47.296c0-6.656 3.552-12.8 9.312-16.128 5.792-3.328 12.864-3.328 18.624 0s9.28 9.472 9.28 16.128c0 10.24-8.32 18.624-18.592 18.624s-18.624-8.384-18.624-18.624z" />
<glyph unicode="&#xe917;" d="M719.808 423.040c3.936 3.936 9.216 6.112 14.816 6.112 34.72 0 62.88 28.16 62.88 62.88s-28.16 62.88-62.88 62.88-62.88-28.16-62.88-62.88c-0.064-11.552-9.44-20.864-20.96-20.864s-20.896 9.312-20.96 20.864c0.032 55.136 42.752 100.832 97.792 104.512 55.040 3.712 103.488-35.872 110.88-90.528s-28.864-105.664-82.912-116.672v-23.072c0-11.584-9.376-20.96-20.928-20.96-11.584 0-20.96 9.376-20.96 20.96v41.952c-0.032 5.76 2.304 11.040 6.112 14.816z" />
<glyph unicode="&#xe918;" d="M734.624 282.464c-7.52-0.032-14.464 3.968-18.24 10.432-3.776 6.496-3.776 14.496 0 20.992 3.776 6.528 10.72 10.496 18.24 10.464 11.488-0.064 20.832-9.44 20.832-20.96 0-11.488-9.344-20.864-20.832-20.928z" />
<glyph unicode="&#xe919;" glyph-name="bluetooth" d="M537.664 214.656l83.584 79.744-83.584 81.472v-161.216zM537.664 684.864v-161.28l83.584 79.744-83.584 81.536zM474.368 60.416v310.208l-137.152-131.392-49.792 47.488 168.448 160.064-167.232 160.064 49.216 46.912 136.512-130.752v308.992l242.304-226.88-164.288-156.544 164.8-156.48-242.816-231.68zM510.016 895.936h-20.928c-195.136-3.904-301.056-89.728-317.888-257.408-5.696-60.16-9.408-114.56-11.072-162.944v-88.576c2.88-88.704 16-159.040 39.36-211.072 50.432-114.496 143.68-173.12 279.744-175.872h23.36c171.328 3.52 279.104 79.104 323.392 226.88 60.224 200.512 48.64 376.192-35.008 527.104-51.2 91.84-144.832 139.136-280.96 141.888v0 0z" />
<glyph unicode="&#xe91a;" glyph-name="heart" d="M534.528 41.344c-6.016-6.080-14.016-9.408-22.528-9.408s-16.576 3.392-22.592 9.344l-344.96 347.968c-107.52 108.416-107.52 284.992 0 393.408 31.232 31.424 68.16 54.272 109.824 67.84 27.392 8.96 56.064 13.44 85.248 13.44 12.992 0 26.048-0.896 38.848-2.752 17.344-2.496 29.568-18.816 27.136-36.352-2.304-15.808-15.872-27.712-31.616-27.712-1.472 0-3.008 0.064-4.544 0.32-10.176 1.472-20.48 2.24-30.656 2.24-56.256 0-109.248-22.208-149.12-62.464-64.576-65.216-60.352-132.736-26.048-199.232 25.216-48.768 58.432-81.28 136.96-69.44 55.936 8.384 189.312 178.176 249.792 226.88 60.416 48.768 89.792 70.912 134.912 63.744 240.448-38.080 149.248-324.416 149.248-324.416 82.624 83.456 82.624 219.072 0 302.528-40 40.32-93.248 62.528-149.952 62.528s-109.952-22.272-149.952-62.592l-192.448-194.112c-6.016-6.080-14.016-9.472-22.528-9.472s-16.512 3.392-22.528 9.408c-12.416 12.544-12.416 32.96 0 45.44l192.448 194.112c52.032 52.48 121.344 81.344 195.072 81.344s142.976-28.864 195.008-81.344c107.52-108.48 107.52-284.992-0.064-393.472l-344.96-347.776z" />
<glyph unicode="&#xe91b;" glyph-name="noticeSolid" d="M1007.936 174.528l-398.080 662.208c-44.032 73.472-151.68 73.472-195.968 0l-397.824-662.208c-45.248-75.136 9.6-170.368 97.92-170.368h796.096c88.256-0.064 143.104 95.232 97.856 170.368v0zM513.472 103.488c-31.040 0-56.384 25.216-56.384 55.744 0 30.784 25.408 55.808 56.384 55.808 31.040 0 56.384-25.216 56.384-55.808 0.192-30.656-25.28-55.744-56.384-55.744v0zM570.048 357.824c0-30.72-25.472-55.744-56.448-55.744-31.040 0-56.384 25.152-56.384 55.744v285.568c0 30.72 25.408 55.744 56.384 55.744 31.104 0 56.448-25.152 56.448-55.744v-285.568z" />
<glyph unicode="&#xe91c;" glyph-name="buildSolid" d="M249.088 448h-110.72v-113.792h110.72v113.792zM415.168 618.688h-110.72v-113.792h110.72v113.792zM415.168 448h-110.72v-113.792h110.72v113.792zM249.088 618.688h-110.72v-113.792h110.72v113.792zM885.632 817.792h-110.656v-113.792h110.656v113.792zM719.552 476.416h-110.656v-113.728h110.656v113.728zM913.344 960h-332.096c-61.184 0-110.72-50.944-110.72-113.728v-60.928c-8.896 2.368-18.112 4.032-27.712 4.032h-332.096c-61.184 0-110.72-50.944-110.72-113.792v-739.584h1024v910.272c0 62.784-49.536 113.728-110.656 113.728v0zM352.576 0h-151.616v213.376h151.68v-213.376h-0.064zM470.528 0h-55.36v277.312h-276.8v-277.312h-75.776v725.312h407.936v-725.312zM823.104 0h-151.744v241.728h151.744v-241.728zM961.472 0h-75.904v305.728h-276.672v-305.728h-75.84v896h428.48v-896h-0.064zM719.552 647.104h-110.656v-113.792h110.656v113.792zM885.632 647.104h-110.656v-113.792h110.656v113.792zM885.632 476.416h-110.656v-113.728h110.656v113.728zM719.552 817.792h-110.656v-113.792h110.656v113.792z" />
<glyph unicode="&#xe91d;" glyph-name="horn" d="M960 121.152c0-21.44-17.664-38.848-39.552-38.848h-817.152c-21.76-0.064-39.296 17.216-39.296 38.592 0 14.976 8.768 27.968 21.504 34.368 17.472 6.72 92.224 41.792 92.224 146.496v277.248c0 134.848 112 259.264 251.328 296.384v2.304c0.064 45.376 37.632 82.304 83.84 82.304s83.776-36.928 83.776-82.304v-2.304c139.392-37.12 251.392-161.536 251.392-296.384v-277.312c0-97.536 64.96-134.656 87.936-144.768 0.064 0-0.128 0-0.064 0 14.144-5.888 24.064-19.648 24.064-35.776zM512.896 905.152c-12.608 0-22.848-8.384-26.304-19.648 8.704 0.704 17.472 1.344 26.304 1.344s17.6-0.64 26.368-1.344c-3.52 11.264-13.824 19.648-26.368 19.648zM773.504 301.76v277.248c0 120.64-126.656 234.688-260.608 234.688s-260.672-114.048-260.672-234.688v-277.312c0-63.488-20.928-111.488-48.448-146.304h618.24c-27.52 34.88-48.512 82.88-48.512 146.368zM375.104 682.048c8.192-6.016 9.856-17.472 3.712-25.6-21.888-28.672-33.472-62.784-33.472-98.752v-182.848c0-10.112-8.32-18.304-18.624-18.304s-18.688 8.192-18.688 18.304v182.848c0 43.968 14.208 85.632 41.024 120.704 6.208 8.064 17.792 9.728 26.048 3.648zM405.056 728.704c6.528 4.032 13.312 7.616 20.288 10.944 9.344 4.416 20.416 0.512 24.832-8.64s0.512-20.032-8.768-24.384c-5.76-2.752-11.392-5.76-16.768-9.024-3.072-1.856-6.4-2.752-9.792-2.752-6.208 0-12.288 3.072-15.808 8.64-5.44 8.576-2.816 19.84 6.016 25.216zM394.048 64h53.312c5.12-0.384 9.344-3.776 10.56-8.512 4.224-26.24 27.136-46.4 54.976-46.4 27.776 0 50.688 20.096 54.976 46.272 1.28 4.736 5.376 8.256 10.56 8.64h53.248c5.568-0.384 9.6-4.48 10.496-9.728-5.184-66.048-60.8-118.272-129.28-118.272s-124.16 52.224-129.344 118.272c0.896 5.248 4.928 9.344 10.496 9.728z" />
<glyph unicode="&#xe91e;" glyph-name="time" d="M512.32 960c283.072-0.384 512-229.824 511.68-512.768-0.32-282.688-231.36-512.896-513.216-511.232-283.904 1.6-511.552 230.528-510.784 513.536 0.768 282.048 230.4 510.848 512.32 510.464zM534.272 591.68c0 60.8 0.192 121.536-0.128 182.336-0.128 25.024-15.744 40.896-39.424 41.472-23.936 0.576-41.92-16.192-41.984-40.832-0.256-137.92-0.256-275.776 0.192-413.568 0-4.928 3.712-12.032 7.808-14.464 86.016-50.048 172.16-99.904 258.88-148.8 8.448-4.736 20.864-6.144 30.4-4.096 17.856 3.776 29.12 16.64 31.936 35.136 2.88 18.816-7.168 31.104-22.336 39.936-71.040 41.216-142.144 82.304-213.504 123.008-8.96 5.12-12.16 10.624-12.096 20.992 0.576 59.584 0.256 119.232 0.256 178.88z" />
<glyph unicode="&#xe91f;" glyph-name="timer" d="M201.536 418.688h89.024v-31.872h-89.024v31.872zM522.432 447.744c8.448 0 16.384-1.984 23.488-5.568 27.456 34.624 58.112 65.6 92.736 92.416 8.512-8.384 16.896-16.704 25.344-25.088-25.984-41.088-56-76.096-88.96-106.368 0.704-3.648 1.088-7.36 1.088-11.136 0-30.848-24.064-55.872-53.696-55.872s-53.696 25.024-53.696 55.872c0 11.776 3.52 22.72 9.536 31.744-39.616 55.616-73.536 115.456-101.184 179.712 9.024 5.12 17.984 10.24 26.944 15.424 39.68-55.488 74.368-113.152 102.912-173.44 4.864 1.472 10.112 2.304 15.488 2.304v0 0zM445.632 751.808l-0.192-95.296 253.184 151.232-252.608 152.256-0.192-97.728c-94.912-14.592-182.528-60.608-250.624-131.328-84.224-87.616-131.2-205.376-131.2-329.28 0-123.968 46.976-241.664 131.2-329.28 84.352-87.552 197.632-136.384 316.8-136.384 119.232 0 232.512 48.832 316.8 136.448 50.176 52.16 87.936 116.032 109.696 186.304l5.184 16.768-100.288 30.976-5.056-15.872c-16.768-53.248-45.44-101.632-83.584-141.248-64.64-67.136-151.36-104.512-242.752-104.512-91.328 0-178.112 37.376-242.688 104.512s-100.544 157.312-100.544 252.288c0 94.976 35.968 185.152 100.544 252.288 48.32 50.24 109.568 84.288 176.32 97.856v0 0zM851.456 455.232c-3.328 22.848-8.704 45.248-16.256 67.008l-5.568 16 98.112 38.080 5.76-16.32c10.88-31.424 18.496-64.064 22.656-97.28l2.368-18.688-104.96-3.968-2.112 15.168zM849.472 336.384c3.904 21.504 5.76 43.392 5.76 65.344 0 2.112 0 4.288 0 6.464l-0.256 16.896 104.576 3.968 0.384-17.472c0.064-3.392 0.064-6.592 0.064-9.92 0-31.296-3.008-62.592-9.024-93.184l-3.584-18.432-100.608 31.040 2.688 15.296zM817.024 565.504c-9.216 18.496-20.032 36.16-32.128 52.736l-9.984 13.504 82.432 67.072 10.176-13.76c17.984-24.256 33.536-50.368 46.656-77.824l8-17.088-98.368-38.208-6.784 13.568zM765.248 643.072l-10.496 10.88c-15.296 15.936-32 30.272-49.856 42.944l-14.72 10.432 65.472 85.568 12.736-9.28c21.568-15.68 41.792-33.344 60.416-52.672 2.176-2.24 4.288-4.544 6.464-6.848l12.672-13.76-82.688-67.264zM512.192 84.992v92.544h30.656v-92.544h-30.656zM737.088 177.344l-62.912 65.408 21.632 22.592 62.976-65.472-21.696-22.528zM290.368 185.024l62.976 65.344 21.696-22.528-62.976-65.344-21.696 22.528zM297.728 649.344l62.912-65.472-21.632-22.528-62.976 65.408 21.696 22.592zM744.384 641.664l-21.632 22.528-62.976-65.408 21.696-22.592 62.912 65.472zM833.28 407.936h-89.088v31.872h89.088v-31.872z" />
<glyph unicode="&#xe920;" glyph-name="timeSolid" d="M384 444.48h-224v-63.552h224v63.552zM160 222.144h224v63.488h-224v-63.488zM768 476.224c-141.12 0-256-113.984-256-254.144s114.88-254.080 256-254.080 256 113.984 256 254.144-114.88 254.080-256 254.080v0 0zM768 31.488c-105.856 0-192 85.504-192 190.656s86.144 190.592 192 190.592 192-85.44 192-190.592-86.144-190.656-192-190.656v0 0zM96 126.784c-8.512 0-16.576 3.328-22.656 9.344-6.016 6.016-9.344 14.016-9.344 22.528v381.12h740.352c20.736-2.944 40.768-8.256 59.648-15.936v238.272c0 25.472-9.984 49.408-28.096 67.392-18.176 17.984-42.304 27.904-67.904 27.904h-64v70.592h-64v-70.592h-384v70.592h-64v-70.592h-96c-25.6 0-49.728-9.92-67.904-27.968-18.112-17.92-28.096-41.856-28.096-67.328v-603.52c0-25.408 9.984-49.344 28.096-67.456 18.176-17.92 42.304-27.904 67.904-27.904h405.632c-15.488 19.072-28.224 40.448-37.632 63.488l-368 0.064zM64 698.624v63.488c0 8.512 3.328 16.448 9.344 22.464s14.144 9.28 22.656 9.28h96v-95.296h64v95.296h384v-95.296h64v95.296h64c8.512 0 16.576-3.328 22.656-9.344s9.344-13.888 9.344-22.4v-158.784h-736v95.296zM800 349.184h-64v-158.784h160v63.488h-96v95.296z" />
<glyph unicode="&#xe921;" glyph-name="removeSolid" d="M512 960c-282.752 0-512-229.248-512-512s229.248-512 512-512 512 229.248 512 512c0 282.752-229.248 512-512 512v0zM718.848 292.864c14.272-14.272 14.272-37.504 0-51.776s-37.504-14.272-51.776 0l-155.072 155.2-155.2-155.136c-14.208-14.272-37.504-14.272-51.712 0-14.272 14.272-14.272 37.504 0 51.776l155.136 155.072-155.072 155.136c-14.272 14.208-14.272 37.504 0 51.712 14.208 14.208 37.504 14.208 51.712 0l155.136-155.136 155.136 155.136c14.272 14.208 37.504 14.208 51.776 0s14.272-37.504 0-51.712l-155.136-155.136 155.072-155.136z" />
<glyph unicode="&#xe922;" glyph-name="building" d="M950.528 526.976h-405.504v316.096c0 46.848-32.896 84.928-73.472 84.928h-398.080c-40.576 0-73.472-38.080-73.472-84.928v-875.072h1024v474.048c0 46.912-32.896 84.928-73.472 84.928v0zM96.448 819.136h145.472v-150.4h-145.472v150.4zM96.448 622.464h145.472v-150.4h-145.472v150.4zM96.448 425.664h145.472v-150.336h-145.472v150.336zM448.576 38.72h-352.128v154.624h352.128v-154.624zM448.576 275.392h-145.472v150.272h145.408v-150.272h0.064zM448.576 472h-145.472v150.4h145.408v-150.4h0.064zM448.576 668.736h-145.472v150.4h145.408v-150.4h0.064zM700.48 114.304h-124.032c-14.080 0-25.472 13.184-25.472 29.44 0 16.192 11.392 29.376 25.472 29.376h124.032c14.080 0 25.472-13.184 25.472-29.376 0.064-16.256-11.392-29.44-25.472-29.44v0zM700.48 227.52h-124.032c-14.080 0-25.472 13.248-25.472 29.44 0 16.256 11.392 29.44 25.472 29.44h124.032c14.080 0 25.472-13.184 25.472-29.44 0.064-16.192-11.392-29.44-25.472-29.44v0zM700.48 340.736h-124.032c-14.080 0-25.472 13.12-25.472 29.376s11.392 29.44 25.472 29.44h124.032c14.080 0 25.472-13.248 25.472-29.44s-11.392-29.376-25.472-29.376v0zM915.904 114.304h-124.032c-14.080 0-25.408 13.184-25.408 29.44 0 16.192 11.392 29.376 25.408 29.376h124.032c14.080 0 25.472-13.184 25.472-29.376-0.064-16.256-11.456-29.44-25.472-29.44v0zM915.904 227.52h-124.032c-14.080 0-25.408 13.248-25.408 29.44 0 16.256 11.392 29.44 25.408 29.44h124.032c14.080 0 25.472-13.184 25.472-29.44-0.064-16.192-11.456-29.44-25.472-29.44v0zM915.904 340.736h-124.032c-14.080 0-25.408 13.12-25.408 29.376s11.392 29.44 25.408 29.44h124.032c14.080 0 25.472-13.248 25.472-29.44-0.064-16.256-11.456-29.376-25.472-29.376v0z" />
<glyph unicode="&#xe923;" glyph-name="jobAccount" d="M798.272 0.256c0 209.344 0 417.728 0 627.072 75.52 0 150.272 0 225.856 0 0-209.088 0-417.408 0-627.072-74.752 0-149.504 0-225.856 0zM541.056 489.408c-48.704 50.368-96.448 99.648-145.408 150.208-116.928-118.272-232.96-235.584-349.568-353.536-15.488 16.384-30.144 31.872-46.272 48.896 130.816 132.288 262.912 265.92 396.352 400.832 49.792-51.456 97.728-100.864 146.752-151.552 84.032 80.128 167.552 159.616 252.16 240.256-23.424 23.104-46.592 45.824-72.576 71.488 65.856 0 126.848 0 188.736 0 0-61.184 0-121.536 0-182.976-21.76 22.464-43.136 44.416-65.28 67.2-103.808-99.136-203.968-194.496-304.896-290.816zM392.192 0c-75.392 0-150.144 0-225.792 0 0 105.408 0 210.432 0 316.48 75.136 0 149.824 0 225.792 0 0-106.304 0-210.88 0-316.48zM707.776 0c-75.008 0-149.696 0-225.344 0 0 139.072 0 277.568 0 417.28 74.624 0 149.376 0 225.344 0 0-138.624 0-277.44 0-417.28z" />
<glyph unicode="&#xe924;" glyph-name="messageSolid" d="M1024-64h-487.168l1.088 1.088c-8.384 0-16.576-1.088-24.832-1.088-283.456 0-513.088 229.632-513.088 512s229.632 512 512 512 512-229.632 512-512c0-141.632-56.896-268.864-150.016-361.984l150.016-150.016zM267.904 521.408c-40.32 0-73.408-33.088-73.408-73.408s33.152-73.408 73.408-73.408c40.32 0 73.408 33.088 73.408 73.408 0 40.384-33.088 73.408-73.408 73.408v0zM512 521.408c-40.32 0-73.408-33.024-73.408-73.408 0-40.32 33.088-73.408 73.408-73.408s73.408 33.088 73.408 73.408c0 40.384-33.088 73.408-73.408 73.408v0zM756.096 521.408c-40.384 0-73.472-33.088-73.472-73.408s33.152-73.408 73.472-73.408c40.32 0 73.344 33.152 73.344 73.408-0.96 40.384-33.024 73.408-73.344 73.408v0z" />
<glyph unicode="&#xe925;" glyph-name="addressList" d="M68.224 536.256h108.672c27.136 0 36.224 21.184 36.224 35.328s-10.88 35.264-36.224 35.264h-108.672c-21.696 0-36.224-19.328-36.224-35.264 0-15.872 9.088-35.328 36.224-35.328v0 0zM68.224 289.152h108.672c27.136 0 36.224 21.184 36.224 35.328 0 14.080-10.88 35.328-36.224 35.328h-108.672c-21.696-0.064-36.224-19.52-36.224-35.392 0-15.936 9.088-35.264 36.224-35.264v0 0zM937.6 960h-760.704c-27.136 0-54.336-26.496-54.336-52.928v-17.664h54.336c41.664 0 72.448-28.224 72.448-70.656s-30.784-70.656-72.448-70.656h-54.336v-105.92h54.336c41.664 0 72.448-28.224 72.448-70.656s-30.784-70.592-72.448-70.592h-54.336v-105.92h54.336c41.664 0 72.448-28.224 72.448-70.592s-30.784-70.656-72.448-70.656h-54.336v-105.92h54.336c41.664 0 72.448-28.224 72.448-70.656s-30.784-70.656-72.448-70.656h-54.336v-17.664c0-26.368 27.2-52.864 54.336-52.864h760.704c27.264 0 54.4 26.496 54.4 52.928v918.080c0 26.496-27.136 52.992-54.4 52.992v0 0zM834.368 244.992c-12.608-26.496-56.128-79.488-99.648-79.488-47.040 0-162.944 61.824-260.8 192.448-90.496 121.792-133.952 211.84-133.952 270.080 0 47.68 32.576 68.864 48.896 81.28l5.376 3.52c19.968 14.144 48.96 17.664 59.776 17.664 19.968 0 28.992-12.352 34.432-21.184 3.584-8.896 39.872-86.528 43.456-95.36 5.44-14.144 3.648-37.056-12.672-49.472l-3.584-1.728c-9.088-5.312-25.408-17.6-27.2-30.016-1.792-7.040 1.792-14.080 7.232-21.184 27.2-37.056 115.968-148.288 132.288-162.432 12.672-12.352 28.928-14.144 39.808-3.52 10.88 8.832 16.32 15.872 16.32 15.872l1.792 1.728c1.792 0 9.088 7.040 23.552 7.040 10.88 0 19.968-3.52 30.784-10.56 27.136-17.664 86.912-58.304 86.912-58.304h1.792c7.296-12.224 18.176-31.68 5.44-56.384v0 0zM68.224 783.424h108.672c27.136 0 36.224 21.184 36.224 35.328s-10.88 35.328-36.224 35.328h-108.672c-21.696 0-36.224-19.456-36.224-35.328s9.088-35.328 36.224-35.328v0 0zM213.12 77.248c0 14.144-10.88 35.328-36.224 35.328h-108.672c-21.696 0-36.224-19.456-36.224-35.328s9.088-35.328 36.224-35.328h108.672c27.136 0 36.224 21.184 36.224 35.328v0 0z" />
<glyph unicode="&#xe926;" glyph-name="notice" d="M511.424 960c-283.008 0-511.424-229.696-511.424-512.576 0-283.008 229.696-511.424 512.576-511.424 283.008 0 511.424 228.416 511.424 511.424 0 284.16-229.632 512.576-512.576 512.576zM576.512 790.656l-23.616-487.744h-81.792l-23.616 487.744h129.024zM564.672 125.44c-15.424-12.928-33.216-20.096-53.248-20.096-20.096 0-37.952 7.168-52.096 21.312-14.208 12.992-22.528 29.568-22.528 52.032 0 21.248 7.104 39.104 22.528 52.096 12.992 12.992 30.72 20.16 52.096 20.16 21.248 0 40.256-7.168 53.248-20.16 14.208-14.208 21.312-30.848 21.312-52.096 0-21.184-7.104-39.040-21.312-53.248z" />
<glyph unicode="&#xe927;" glyph-name="wbset" d="M860.992 189.824l-180.16 177.856c11.648 24.384 18.048 51.648 18.048 80.192 0 103.232-83.392 186.688-186.752 186.688-17.152 0-34.048-2.304-49.856-6.656l79.936-79.68c33.152-33.344 30.656-89.216-5.312-125.12-35.84-35.712-91.968-38.208-125.056-5.376l-79.872 80.32c-4.416-15.936-6.72-32.64-6.72-50.112 0-103.424 83.648-187.264 186.816-187.264 28.416 0 55.936 6.528 79.936 18.24l179.392-178.304c22.848-22.464 61.12-21.056 85.696 3.84 24.512 24.32 26.304 62.912 3.904 85.376v0 0 0zM812.608 117.248c-17.344 0-32.064 14.272-32.064 31.872 0 17.088 14.656 31.104 32.064 31.104 17.472 0 31.616-14.016 31.616-31.104 0-17.6-14.080-31.872-31.616-31.872v0 0 0zM904.128 530.816h-18.24l-42.752 0.384c-8.576 0.768-16.768 3.84-23.872 8.448-0.448 0-0.64 0.192-0.96 0.576-15.040 9.792-25.216 27.264-24.896 46.656 0 6.144 1.28 11.712 3.2 17.472 1.728 6.080 4.8 12.032 8.96 17.088l9.344 9.6 21.248 20.928 12.416 12.672c18.112 23.424 18.112 57.024-0.64 80.576l-36.48 37.376c-24.32 18.624-57.728 19.2-81.408 1.152l-13.312-12.672-29.504-30.336h-0.384c-16.128-13.056-38.4-15.552-56.832-7.424-6.336 2.88-12.032 6.528-17.536 11.904-8.704 9.408-14.080 20.672-15.616 32.768v61.376c-3.584 29.76-27.264 53.184-57.664 56.64h-52.032c-29.824-3.264-53.888-26.688-58.112-56.256v-60.864c-0.192-1.536-0.768-3.2-0.896-4.544v-0.576c-0.448-1.536-0.64-3.072-0.832-4.416-0.576 0-0.576-0.576-0.576-0.576-0.512-1.344-0.832-3.456-1.6-4.416v0c-0.512-1.728-1.472-3.072-2.24-4.608v-0.192c-3.136-6.528-7.552-12.096-13.504-16.896-9.6-8.192-22.528-13.248-36.288-13.248-12.928 0-25.088 4.416-34.432 12.096l-9.472 9.6-21.12 20.736-12.864 13.056c-23.616 18.048-57.088 18.048-80.64-0.96l-37.248-36.864c-18.816-23.36-19.136-56.96-1.152-80.96l12.864-12.672 30.144-29.952c0.576-0.896 1.024-1.728 1.6-2.624 0.384-0.192 0.768-0.96 1.536-1.92 0.384-0.576 0.704-1.728 1.344-2.496 0-0.192 1.024-1.152 1.024-1.728 0.512-0.768 1.152-2.112 1.792-3.072 0-0.576 0.192-1.152 0.512-1.728 0.576-0.768 0.768-2.112 1.6-3.264 0-0.384 0.064-0.96 0.32-1.536 0.128-1.728 1.024-3.072 1.024-4.8v0c0.512-1.728 0.768-3.264 0.768-4.992v0c2.432-16.512-3.136-33.792-16-46.464v0c-9.152-9.216-20.864-14.592-32.96-15.936h-60.864c-29.824-4.224-53.376-27.968-56.704-57.536l-0.192-52.416c3.008-30.144 26.496-53.696 56.256-57.728h18.304l42.432-0.64c1.472-0.192 3.648-0.192 5.056-0.768h1.472c1.344-0.512 2.112-0.96 3.648-1.088 22.912-7.104 39.488-28.416 39.488-53.76v0c0-12.864-4.352-25.344-12.16-34.944l-9.344-9.024-21.376-20.928-12.8-12.672c-17.792-24-17.792-57.344 0.704-80.832l37.12-37.376c23.68-18.816 56.896-19.008 80.96-0.768l12.672 12.608 30.464 29.76c0 0.384 0.256 0.384 0.64 0.64 1.152 1.152 2.432 1.664 3.264 2.88 1.024 0.128 1.28 0.128 1.984 0.768 0.576 0.384 1.536 1.152 2.304 1.664 1.024 0.576 2.368 0.768 3.456 1.344 0.64 0.384 1.152 0.64 1.344 1.024 1.6 0.192 2.688 0.768 4.8 1.344v0 0c1.856 0.512 3.072 1.344 4.416 1.344h0.576c1.408 0.384 2.944 0.576 4.608 0.96h0.384c1.344 0 2.688 0 3.84 0.64 15.552 0.576 31.232-4.8 42.816-16.768 9.6-9.152 14.592-21.056 16.192-33.152l-0.192-13.12v-47.552c3.648-30.208 27.52-53.76 57.344-56.832h52.48c30.016 3.072 53.632 26.496 57.792 55.872v17.984l0.512 30.72v12.032c1.152 10.944 5.056 19.968 11.136 28.032 0.576 0.96 1.152 1.536 1.728 2.112 0.384 0.192 0.768 1.344 1.664 1.664 3.328 3.712 7.040 6.912 11.2 9.792v0c1.28 0.192 2.496 1.152 3.264 1.664 1.024 0.64 1.024 0.64 1.344 0.64v0c0.576 0.128 0.96 0.128 1.088 0.128 1.088 0.768 1.92 0.768 3.2 1.344l-50.24 50.048c-21.76-6.336-44.672-9.408-68.416-9.408-135.744 0.32-245.12 110.272-244.672 245.376 0 135.872 110.336 245.632 245.952 245.248 135.424-0.576 244.8-110.528 244.544-246.016-0.128-22.976-3.648-45.888-9.728-66.624l50.624-49.664c2.624 5.952 6.72 11.136 11.328 16.32 5.184 4.992 12.032 8.832 18.432 11.328 4.736 2.112 9.6 3.712 14.272 4.224h61.248c29.696 4.032 53.184 27.648 56.576 57.344v52.992c-3.008 29.632-26.304 53.632-55.872 57.664v0 0 0z" />
<glyph unicode="&#xe928;" glyph-name="other" d="M750.016 896h-476.032c-115.968 0-209.984-94.016-209.984-209.984v-476.032c0-115.904 94.016-209.984 209.984-209.984h476.032c115.904 0 209.984 94.080 209.984 209.984v476.032c0 115.968-94.080 209.984-209.984 209.984v0zM495.68 229.888c0-7.488-6.080-13.568-13.568-13.568h-179.2c-7.488 0-13.568 6.080-13.568 13.568v179.2c0 7.488 6.080 13.632 13.568 13.632h179.2c7.488 0 13.568-6.144 13.568-13.632v-179.2zM490.496 533.12c-5.312-12.864-13.184-24.576-23.040-34.432-9.792-9.792-21.568-17.664-34.368-22.976-12.864-5.312-26.688-8.064-40.576-8.064s-27.776 2.752-40.576 8.064c-12.864 5.312-24.576 13.184-34.432 22.976s-17.6 21.568-22.976 34.432c-5.312 12.8-8.064 26.688-8.064 40.576s2.816 27.712 8.064 40.576c5.312 12.8 13.184 24.576 22.976 34.432 9.792 9.792 21.568 17.664 34.432 22.976 12.8 5.312 26.688 8.064 40.576 8.064s27.776-2.752 40.576-8.064c12.864-5.312 24.576-13.184 34.432-22.976 9.856-9.856 17.664-21.568 22.976-34.432s8.064-26.688 8.064-40.576-2.752-27.776-8.064-40.576v0zM737.536 229.888c0-7.488-6.144-13.568-13.632-13.568h-179.2c-7.488 0-13.568 6.080-13.568 13.568v179.2c0 7.488 6.080 13.632 13.568 13.632h179.2c7.488 0 13.632-6.144 13.632-13.632v-179.2zM737.536 484.096c0-7.488-6.144-13.568-13.632-13.568h-179.2c-7.488 0-13.568 6.080-13.568 13.568v179.2c0 7.552 6.080 13.568 13.568 13.568h179.2c7.488 0 13.632-6.080 13.632-13.568v-179.2z" />
<glyph unicode="&#xe929;" glyph-name="set" d="M508.736 643.264c-101.952 0-185.344-87.936-185.344-195.584 0-107.584 83.392-195.584 185.344-195.584s185.408 87.872 185.408 195.584c0 107.648-83.456 195.584-185.408 195.584zM360.384 961.024c18.56 0 39.36-7.36 51.008-19.584 13.888-17.088 62.592-61.12 99.648-61.12s85.76 44.032 99.712 58.688c11.584 14.656 32.448 22.016 50.944 22.016 11.648 0 18.56 0 27.904-4.928h2.304l127.36-75.776h2.304c25.344-19.584 34.752-56.128 23.040-85.504 0 0-11.584-26.944-11.584-51.328 0-73.344 55.552-131.968 125.056-131.968h4.608c23.104 0 41.6-22.016 48.704-56.128 2.304-2.432 11.584-61.12 11.584-107.52 0-48.896-11.584-107.52-11.584-107.52-4.608-34.176-25.472-56.256-48.704-56.256h-4.608c-69.504 0-125.056-58.624-125.056-131.968 0-24.448 11.584-51.328 11.584-51.328 11.712-29.312 2.304-63.552-23.040-83.136h-2.368l-127.36-75.84h-2.304c-6.848-2.368-16.256-4.864-25.408-4.864-20.864 0-41.6 9.664-53.312 24.448-13.888 17.088-64.832 63.424-101.952 63.424-34.688 0-81.152-44.032-99.648-63.424-11.584-14.72-30.144-24.448-50.944-24.448-11.648 0-18.56 0-27.84 4.864h-2.432l-125.056 73.344h-2.24c-25.664 19.584-34.88 56.256-23.36 85.376 0 0 11.584 27.008 11.584 51.456 0 73.344-55.552 131.968-125.056 131.968h-4.608c-23.104 0-41.664 22.016-48.704 56.128-2.304 2.496-11.648 61.184-11.648 107.584 0 44.032 9.344 102.592 11.648 107.52 4.608 34.112 25.408 56.128 48.704 56.128h2.304c69.504 0 125.12 58.688 125.12 131.968 0 24.384-11.648 51.392-11.648 51.392-11.648 29.312-2.368 63.488 23.104 83.072h2.304l132.096 78.208h2.304c6.976 2.624 16.32 5.056 25.536 5.056z" />
<glyph unicode="&#xe92a;" glyph-name="locationAround" d="M512 959.616c-214.4 0-388.16-171.84-388.16-383.744s388.16-639.488 388.16-639.488 388.16 427.648 388.16 639.552-173.824 383.68-388.16 383.68zM512 320.128c-142.912 0-258.816 114.496-258.816 255.808s115.904 255.808 258.816 255.808c142.848 0 258.752-114.56 258.752-255.808s-115.904-255.808-258.752-255.808zM512 703.808c-71.488 0-129.408-57.28-129.408-127.936 0-70.528 57.92-127.872 129.408-127.872 71.36 0 129.344 57.344 129.344 127.936s-57.984 127.872-129.344 127.872z" />
<glyph unicode="&#xe92b;" glyph-name="arrowMark" d="M2.304-63.808l1021.568 1023.168h-970.56c0 0-46.208 8.768-51.072-51.136s0.064-972.032 0.064-972.032z" />
<glyph unicode="&#xe92c;" glyph-name="arrowAround" d="M63.232 800c-52.16 0-85.568-84.864-45.568-133.504l449.344-546.944c25.792-31.36 64.128-31.36 89.856 0l449.408 546.944c39.104 47.424 8.64 133.504-44.864 133.504h-898.176z" />
<glyph unicode="&#xe92d;" glyph-name="security" d="M512.064 808.512l-312.256-103.616c-26.752-148.736-13.376-279.488 40.128-392.064 49.088-94.656 138.304-171.264 272.128-225.344 133.824 54.080 223.040 130.688 267.648 225.344 57.984 112.64 71.36 243.328 44.544 396.544l-312.192 99.136zM512.128 313.6l-216.704 217.6 50.944 44.736 165.76-166.336 229.44 230.272 50.944-44.736-280.384-281.536zM958.272 819.008l-446.144 140.672-446.144-147.136c-38.208-211.072-19.136-396.544 57.344-556.416 70.144-134.336 197.568-243.072 388.8-319.808 191.168 76.736 318.656 185.472 382.336 319.808 82.88 159.872 101.952 345.344 63.808 562.88zM837.12 288.128c-57.344-115.136-165.696-204.672-324.992-275.072-165.696 63.936-274.048 159.936-331.456 268.608-70.080 140.736-89.216 300.672-57.344 486.144l388.8 127.872 388.736-127.872c25.472-185.472 6.336-345.408-63.744-479.68z" />
<glyph unicode="&#xe92e;" glyph-name="forbid" d="M511.808 812.16c-200.832 0-363.648-163.008-363.648-364.032 0-89.792 32.448-171.968 86.272-235.392l511.872 513.536c-63.232 53.632-145.088 85.888-234.496 85.888zM782.656 691.072l-512.768-514.56c64.256-57.408 149.056-92.224 241.92-92.224 200.896 0 363.712 162.944 363.712 363.968 0 93.248-35.136 178.368-92.864 242.816zM512 960c-282.816 0-512-229.248-512-512s229.184-512 512-512c282.752 0 512 229.248 512 512s-229.248 512-512 512zM512 33.536c-228.928 0-414.528 185.536-414.528 414.464s185.536 414.528 414.528 414.528c228.864 0 414.464-185.536 414.464-414.528 0-228.864-185.6-414.464-414.464-414.464z" />
<glyph unicode="&#xe92f;" glyph-name="mark" d="M0 928.896c0 0 1024-963.968 1024-961.728 0 2.112 0 912 0 912s-11.52 46.72-56.512 49.792c-0.768-0.192-967.488-0.064-967.488-0.064z" />
<glyph unicode="&#xe930;" glyph-name="questionMark" d="M512 960c-282.688 0-512-229.248-512-512 0-282.688 229.312-512 512-512 282.752 0 512 229.312 512 512 0 282.752-229.248 512-512 512v0zM508.672 89.728c-41.664 0-75.584 33.216-75.584 73.984 0 40.896 33.792 74.048 75.584 74.048 41.664 0 75.584-33.216 75.584-74.048 0-40.768-33.792-73.984-75.584-73.984v0zM711.616 508.608c-14.848-23.296-46.272-54.976-94.528-95.104-24.96-20.672-40.448-37.376-46.464-50.112-6.016-12.544-8.832-35.2-8.256-67.84h-107.584c-0.192 15.424-0.448 24.896-0.448 28.288 0 34.88 5.76 63.424 17.344 85.952s34.624 47.808 69.12 75.84c34.496 28.096 55.168 46.528 61.888 55.168 10.304 13.696 15.552 28.864 15.552 45.376 0 22.912-9.28 42.624-27.648 59.072-18.368 16.384-43.264 24.64-74.496 24.64-30.144 0-55.36-8.64-75.584-25.6-20.224-17.152-37.632-54.784-41.792-78.080-3.84-22.016-109.888-31.36-108.608 13.312 1.344 44.544 24.512 92.992 64.256 128.064s92.032 52.544 156.672 52.544c68.032 0 122.048-17.728 162.304-53.312 40.256-35.52 60.224-76.8 60.224-124.032 0.192-26.176-7.232-50.816-21.952-74.176v0z" />
<glyph unicode="&#xe931;" glyph-name="add" d="M512 960c-282.752 0-512-229.248-512-512s229.248-512 512-512c282.752 0 512 229.248 512 512s-229.248 512-512 512zM768.768 401.344h-210.112v-210.112c0-25.728-20.864-46.656-46.656-46.656s-46.656 20.864-46.656 46.656v210.112h-210.112c-25.728 0-46.592 20.928-46.592 46.656s20.864 46.656 46.592 46.656h210.176v210.112c-0.064 25.728 20.864 46.592 46.592 46.592s46.656-20.864 46.656-46.592v-210.176h210.112c25.728 0 46.656-20.864 46.656-46.656s-20.928-46.592-46.656-46.592z" />
<glyph unicode="&#xe932;" glyph-name="remove2" d="M983.488 647.808c-27.072 62.016-63.552 116.032-109.632 162.112-46.016 46.080-100.224 82.624-162.624 109.568-62.464 27.008-128.96 40.512-199.808 40.512-70.784 0-137.152-13.504-199.232-40.512-62.016-27.008-116.032-63.552-162.048-109.632-46.080-46.016-82.624-100.032-109.568-162.112-27.072-62.016-40.576-128.384-40.576-199.168 0-70.72 13.504-137.344 40.512-199.744 27.008-62.464 63.552-116.608 109.568-162.688s100.032-82.56 162.112-109.632c62.080-27.008 128.448-40.512 199.232-40.512s137.344 13.504 199.808 40.512c62.4 27.072 116.608 63.552 162.624 109.632 46.080 46.080 82.56 100.224 109.632 162.688 27.008 62.336 40.512 128.96 40.512 199.744s-13.504 137.152-40.512 199.232zM827.648 396.608c-18.24-11.84-38.72-17.664-61.632-17.664h-504.64c-22.784 0-43.776 5.888-62.784 17.664-19.008 11.84-28.544 29.504-28.544 53.12 0 22.848 9.536 39.808 28.544 50.752 19.008 11.072 40 16.576 62.784 16.576h504.576c22.848 0 43.392-5.504 61.632-16.576 18.24-11.008 27.456-27.968 27.456-50.752 0-23.616-9.152-41.28-27.392-53.12z" />
<glyph unicode="&#xe933;" glyph-name="cameraSolid" d="M52.544 0c-29.696 0-52.544 23.488-52.544 54.144v630.208c0 30.528 22.848 54.080 52.544 54.080h130.304c32 4.672 75.456 16.448 86.848 56.448l9.152 47.040c9.152 44.672 61.696 51.712 98.304 54.080h269.76c73.152 0 91.392-37.632 96-54.080l11.392-56.448c11.52-25.856 32-40 61.76-47.040h155.456c29.632 0 52.48-23.552 52.48-54.080v-630.208c0-30.656-22.848-54.144-52.544-54.144h-918.912zM400 839.552c-43.456 0-52.544-21.184-64-51.776l-9.152-30.528c-22.848-58.816-112-70.592-150.848-72.896h-73.152c-43.392 0-48-18.816-48-35.264v-547.968c0-32.96 9.152-44.672 32-44.672h841.152c25.152 0 41.152 16.448 41.152 44.672v547.968c0 14.144-4.544 35.264-48 35.264h-128c-52.544 9.408-86.848 37.632-96 80l-9.152 25.856-6.848 14.080c-9.152 18.816-16 37.632-50.24 37.632l-230.912-2.368zM512 105.792c-141.696 0-256 117.568-256 263.424 0 145.792 114.304 263.36 256 263.36 141.76 0 256-117.568 256-263.36 0-145.856-114.24-263.424-256-263.424v0zM512 578.496c-112 0-201.152-94.080-201.152-206.912s91.456-206.976 201.152-206.976c112 0 201.152 94.080 201.152 206.912s-89.152 206.976-201.152 206.976v0zM356.544 369.28v9.344c4.544 82.304 66.304 148.16 146.304 150.528h9.152v-30.592h-9.152c-64-2.368-114.304-56.448-118.848-122.304v-9.344l-27.456 2.368zM893.76 552.64c-29.76 0-52.608 23.552-52.608 54.080s22.848 54.080 52.608 54.080c29.696 0 52.48-23.488 52.48-54.080s-22.784-54.080-52.48-54.080v0z" />
<glyph unicode="&#xe934;" glyph-name="linkman" d="M713.6 265.6c6.72-5.76 15.36-9.344 25.024-9.344 21.12 0 38.208 16.832 38.208 37.504 0.064 12.48-6.208 23.488-15.808 30.336 0.128 0.192 0.128 0.32 0.128 0.448-38.080 28.096-78.144 47.424-116.032 60.736 90.624 55.040 152.384 151.808 152.384 265.6 0 172.608-142.656 309.248-316.224 309.248-173.504 0-316.096-138.56-316.096-311.168 0-111.936 59.776-210.496 150.4-263.68-260.224-92.928-283.392-356.608-283.392-360.384-1.92-20.864 13.44-39.872 34.688-39.872 21.184-1.856 40.448 13.248 42.432 34.176 0 13.312 28.928 301.632 368.128 320.576 8.512 0 130.624 4.48 236.096-74.176-0.064 0 0 0 0.064 0v0zM481.28 415.616c-131.072 0-238.976 104.32-238.976 235.264 0 130.88 107.968 233.344 238.976 233.344 131.072 0 239.040-104.32 239.040-235.264 0-130.88-107.968-233.344-239.040-233.344v0zM937.024 286.528c-6.528 1.6-13.12 2.624-20.224 2.624-41.28 0-75.136-34.368-75.136-76.8 0-34.624 22.656-64.064 53.376-73.536-22.976-38.528-54.72-71.488-92.48-95.36-11.52 27.136-38.144 46.080-69.12 46.080-41.6 0-75.264-34.304-75.264-76.8 0-4.864 0.32-9.728 1.6-14.4 6.4-35.264 36.48-62.016 72.64-62.4 20.608 0 32 5.504 42.112 9.152 108.864 39.424 189.632 131.52 214.336 244.416 1.088 4.864 3.2 15.168 3.2 22.848-0.064 35.264-23.424 64.96-55.040 74.176v0z" />
<glyph unicode="&#xe935;" glyph-name="locationSolid" d="M512 773.824c-105.6 0-192-83.776-192-186.176 0-102.464 86.4-186.24 192-186.24s192 83.776 192 186.24c0 102.4-86.4 186.176-192 186.176v0zM512 448c-79.168 0-144 62.848-144 139.648s64.832 139.648 144 139.648 144-62.848 144-139.648-64.832-139.648-144-139.648v0zM512 960.064c-211.2 0-384-167.616-384-372.416 0-302.656 384-651.776 384-651.776s384 349.12 384 651.776c0 204.8-172.8 372.416-384 372.416v0zM512 5.76c0 0-336 302.528-336 581.888 0 179.2 151.168 325.888 336 325.888s336-146.688 336-325.888c0-279.424-336-581.888-336-581.888v0z" />
<glyph unicode="&#xe936;" glyph-name="voice" d="M504.718 251.392c101.945 0 184.472 82.527 184.472 184.472v305.835c0 101.945-82.527 184.472-184.472 184.472s-184.472-82.527-184.472-184.472v-305.835c2.427-101.945 82.527-184.472 184.472-184.472zM791.135 569.363c-19.418 0-36.409-16.991-36.409-36.409v-99.518c0-138.354-111.654-250.008-250.008-250.008s-250.008 111.654-250.008 250.008v109.227c0 19.418-16.991 36.409-36.409 36.409s-36.409-16.991-36.409-36.409v-109.227c0-165.054 126.217-303.407 286.417-320.398v-77.672h-121.363c-19.418 0-36.409-16.991-36.409-36.409s16.991-36.409 36.409-36.409h315.544c19.418 0 36.409 16.991 36.409 36.409s-16.991 36.409-36.409 36.409h-121.363v77.672c160.199 16.991 286.417 155.345 286.417 320.398v99.518c0 21.845-16.991 36.409-36.409 36.409z" />
<glyph unicode="&#xe937;" glyph-name="camera" d="M286.258 906.759c-14.564-43.692-29.128-87.384-50.974-138.358-65.538 0-160.204 7.282-196.614-21.846-43.692-29.128-36.41-94.666-36.41-167.486 0-123.794 0-247.581 0-371.375 0-50.974-7.282-131.076 14.564-160.204 36.41-65.538 131.076-50.974 233.017-50.974 225.742 0 458.759 0 684.496 0 43.692 7.282 65.538 29.128 80.102 65.538 7.282 29.128 7.282 65.538 7.282 101.948 0 65.538 0 131.076 0 196.614 0 72.82 0 152.922 0 225.742 0 36.41 0 87.384-7.282 116.512-7.282 21.846-21.846 43.692-43.692 58.256-36.41 29.128-138.358 14.564-196.614 14.564-14.564 43.692-29.128 87.384-43.692 131.076-145.64 0-298.555 0-444.195 0zM788.709 433.436c14.564-50.974 0-116.512-14.564-160.204-43.692-94.666-116.512-160.204-240.299-174.768-21.846 0-94.666 7.282-123.794 21.846-116.512 43.692-233.017 189.332-167.486 364.093 29.128 80.102 87.384 138.358 167.486 167.486 21.846 7.282 65.538 14.564 80.102 14.564 174.768 0 269.427-94.666 298.555-233.017zM832.401 593.64c-29.128 0-50.974 29.128-36.41 50.974 7.282 14.564 14.564 14.564 21.846 21.846 50.974 0 50.974-65.538 14.564-72.82zM504.718 564.512c123.794 0 233.017-109.23 174.768-240.299-21.846-58.256-72.82-101.948-145.64-109.23-123.794-29.128-233.017 109.23-189.332 233.017 21.846 43.692 58.256 87.384 109.23 101.948 14.564 7.282 29.128 7.282 50.974 14.564z" />
<glyph unicode="&#xe938;" glyph-name="account" d="M512 960c-282.368 0-512-229.632-512-512s229.632-512 512-512 512 229.632 512 512-229.632 512-512 512v0zM512-17.6c-256.832 0-465.6 208.896-465.6 465.6 0 256.832 208.832 465.6 465.6 465.6s465.6-208.832 465.6-465.6c0-256.768-208.832-465.6-465.6-465.6v0zM801.728 553.856c0.128 8.704-4.032 16.896-11.072 22.208l-262.4 194.112c-9.6 7.104-22.848 7.104-32.512 0l-262.592-194.112c-6.976-5.184-11.072-13.504-11.072-22.208 0.128-8.704 4.288-16.896 11.392-21.952l44.736-31.936-45.056-33.408c-6.976-5.184-11.072-13.376-11.072-22.208 0.128-8.704 4.288-16.896 11.392-21.952l44.736-31.936-45.056-33.408c-6.976-5.184-11.072-13.376-11.072-22.208 0.128-8.768 4.288-16.96 11.456-22.016l262.592-187.392c4.608-3.392 10.24-4.992 15.872-4.992s11.072 1.664 15.872 5.056l262.656 187.392c7.040 5.056 11.264 13.248 11.392 22.016 0.128 8.704-4.032 16.896-11.072 22.208l-45.056 33.344 44.736 31.936c7.040 5.056 11.264 13.248 11.392 22.016 0.128 8.704-4.032 16.896-11.072 22.208l-45.056 33.344 44.736 31.936c7.040 5.056 11.2 13.248 11.2 21.952v0zM512 181.312l-216.128 154.24 29.184 21.632 171.008-122.048c4.672-3.52 10.304-5.056 15.936-5.056s11.072 1.664 15.872 5.056l171.072 121.92 29.184-21.632-216.128-154.112zM512 290.816l-216.128 154.24 29.184 21.504 171.008-122.048c4.672-3.52 10.304-5.056 15.936-5.056s11.072 1.664 15.872 5.056l171.072 122.048 29.184-21.504-216.128-154.24zM575.936 445.824l-63.936-45.632-216.128 154.304 216.128 159.872 216.128-159.872-152.192-108.672z" />
<glyph unicode="&#xe939;" glyph-name="vitasphere" d="M512-64c-282.368 0-512 229.632-512 512s229.632 512 512 512c282.368 0 512-229.632 512-512s-229.632-512-512-512zM512 913.6c-256.768 0-465.664-208.832-465.664-465.6s208.896-465.6 465.664-465.6c256.704 0 465.6 208.896 465.6 465.6 0 256.768-208.832 465.6-465.6 465.6zM578.624 361.6l192.64 191.296c40.256-103.104 2.496-191.552 2.496-191.552l-195.136 0.256zM617.472 706.432c98.88-44.288 133.888-134.080 133.888-134.208l-133.888-134.080v268.288zM406.848 706.944c102.976 40.256 191.296 3.584 191.296 3.584l-0.128-195.904-191.168 192.32zM253.632 553.344c44.224 97.344 129.408 133.632 129.408 133.632l138.56-133.632h-267.968zM253.248 342.528c-40 103.232-4.352 191.488-4.352 191.488l195.712-0.256-191.36-191.232zM406.4 189.12c-97.344 44.224-133.76 130.368-133.76 130.368l133.76 137.792v-268.16zM617.28 188.992c-102.976-40.128-191.232-3.648-191.232-3.648l0.128 195.392 191.104-191.744zM770.368 342.72c-44.096-99.264-133.12-134.4-133.12-134.4l-134.784 134.4h267.904z" />
<glyph unicode="&#xe93a;" glyph-name="repository" d="M512-64c-282.368 0-512 229.632-512 512s229.632 512 512 512c282.368 0 512-229.632 512-512s-229.632-512-512-512zM512 913.6c-256.768 0-465.6-208.832-465.6-465.6s208.832-465.6 465.6-465.6c256.704 0 465.6 208.896 465.6 465.6s-208.832 465.6-465.6 465.6zM861.504 260.416c0 0-175.488 95.68-340.224 4.288 0 0 190.72 144.768 341.568 66.432 0 0.064 5.632-50.368-1.344-70.72zM524.352 281.216c0 0 140.288 181.44 299.392 146.688 0 0 17.6-45.248 16.384-65.792 0-0.064-186.24 44.672-315.776-80.896zM509.44 270.656v105.664c0 0 75.392 121.472 252.544 144.96 0 0 35.52-37.696 41.984-58.112 0.064-0.064-208.832-23.616-294.528-192.512zM691.136 691.648l-37.504-37.504-62.4 62.4 40.128 40.128 0.128-0.128c17.28 16.512 44.736 16.32 61.632-0.704 17.28-17.216 17.28-45.12 0-62.336-0.64-0.64-1.344-1.28-1.984-1.856zM505.088 505.344l-62.4 62.336 138.368 138.368 62.528-62.4-138.496-138.304zM449.6 479.616l-32.64 32.576 14.72 44.544 62.4-62.336-44.48-14.784zM420.224 461.44c61.44-40.448 89.216-85.12 89.216-85.12v-105.6c-85.568 168.832-294.528 192.384-294.528 192.384 6.528 20.416 41.984 58.112 41.984 58.112 56.448-7.488 102.528-24.96 139.136-45.184l10.368 25.6 32.576-32.576-18.752-7.616zM496.896 281.216c-129.536 125.568-315.712 80.832-315.712 80.832-1.344 20.608 16.32 65.856 16.32 65.856 159.104 34.752 299.392-146.688 299.392-146.688zM499.968 264.768c-164.736 91.392-340.224-4.288-340.224-4.288-6.912 20.288-1.344 70.72-1.344 70.72 150.848 78.272 341.568-66.432 341.568-66.432z" />
<glyph unicode="&#xe93b;" glyph-name="telephone" d="M512 960c-282.752 0-512-229.248-512-512s229.248-512 512-512 512 229.248 512 512-229.248 512-512 512v0zM512 11.52c-241.088 0-436.48 195.456-436.48 436.48s195.392 436.48 436.48 436.48 436.48-195.392 436.48-436.48-195.392-436.48-436.48-436.48v0zM672.256 181.504l25.472 14.016c-20.16 24.64-38.656 49.92-55.68 75.904-16.96 25.6-32.512 52.032-47.104 78.848l-37.44-20.672c-49.408 69.632-91.52 144.448-124.864 225.6l37.888 20.864c-14.656 26.304-28.416 53.184-40.832 80.768-12.992 28.672-24.704 58.304-34.816 88.96l-25.216-13.824c-42.752-24.448-60.928-55.040-54.656-91.84l0.384-1.536-0.128-0.128c1.984-8.96 4.096-17.792 6.464-26.624l0.064-0.384h0.064c39.744-153.344 117.376-285.888 222.080-403.52 0.384-0.96 0.704-1.792 0.96-2.624 6.848-6.976 13.76-14.016 20.608-20.992 27.712-25.024 63.232-25.92 106.752-2.816v0zM719.296 207.424c-20.736 25.088-39.616 50.88-57.024 77.184-16.704 25.344-32 51.2-46.272 77.312l28.736 15.808c14.656-3.648 83.904-84.224 101.632-155.392l-27.072-14.912zM491.712 587.712c-14.272 25.6-27.648 51.904-39.936 79.104-13.184 29.184-25.088 59.456-35.264 90.88l24.32 13.376c33.536-26.624 80.512-143.872 75.584-169.728l-24.704-13.632z" />
<glyph unicode="&#xe93c;" glyph-name="location" d="M510.336 960c-211.776-1.024-383.296-178.624-382.336-395.968 0.896-203.968 317.248-571.584 353.344-612.8 8.448-9.728 20.672-15.296 33.408-15.232 12.672 0.064 24.832 5.696 33.28 15.488 35.648 41.6 348.864 412.096 347.968 616.064-0.96 217.344-174.016 393.408-385.664 392.448v0zM512.768 392.768c-85.76-0.448-155.904 70.912-156.288 158.912s69.12 160 154.88 160.384c85.76 0.384 155.904-70.912 156.16-158.912 0.512-88.064-68.992-160-154.752-160.384v0z" />
<glyph unicode="&#xe93d;" glyph-name="splice" d="M473.6 896h76.8c14.080 0 25.6-13.376 25.6-29.888v-836.224c0-16.512-11.52-29.888-25.6-29.888h-76.8c-14.144 0-25.6 13.376-25.6 29.888v836.224c0 16.512 11.456 29.888 25.6 29.888z" />
<glyph unicode="&#xe93e;" glyph-name="sure" d="M450.304 198.592c-18.368-18.304-46.272-21.184-67.52-8.64-3.968 2.304-11.136 11.52-11.136 11.52l-228.672 228.608c-21.696 21.696-21.696 54.016 0 75.776 21.696 21.696 56.896 18.816 78.592-2.88l189.44-189.376 357.888 357.824c21.632 21.696 56.896 24.576 78.656 2.88 21.696-21.696 21.696-54.016 0-75.712l-397.248-400zM512 960.064c-282.816 0-512.064-229.248-512.064-512.064s229.248-512.064 512.064-512.064 512.064 229.248 512.064 512.064-229.248 512.064-512.064 512.064v0 0 0z" />
<glyph unicode="&#xe93f;" glyph-name="circle2" d="M512 896c247.424 0 448-200.576 448-448s-200.576-448-448-448-448 200.576-448 448 200.576 448 448 448z" />
<glyph unicode="&#xe940;" glyph-name="arrowTop" d="M512 958.656c281.984 0 510.656-228.608 510.656-510.656 0-281.984-228.608-510.656-510.656-510.656s-510.656 228.608-510.656 510.656c0 282.048 228.608 510.656 510.656 510.656zM512 637.056l-293.632-296 81.6-82.112 212.032 213.76 212.032-213.76 81.6 82.112-293.632 296z" />
<glyph unicode="&#xe941;" glyph-name="arrowRight2" d="M768 447.36c0-8.448-3.392-16.896-10.24-23.296l-441.792-413.888c-13.76-12.864-35.968-12.864-49.664 0s-13.76 33.664 0 46.592l417.6 391.232-417.6 391.296c-13.76 12.864-13.76 33.728 0 46.592s35.968 12.864 49.664 0l441.792-413.952c6.848-6.4 10.24-14.848 10.24-23.296 0-0.192-0.128-0.448-0.128-0.64s0.128-0.448 0.128-0.64z" />
<glyph unicode="&#xe942;" glyph-name="arrowDown2" d="M512.672 190.272c8.448 0 16.896 3.392 23.296 10.24l413.888 441.792c12.864 13.76 12.864 35.968 0 49.664s-33.664 13.76-46.592 0l-391.232-417.6-391.296 417.6c-12.864 13.76-33.728 13.76-46.592 0s-12.864-35.968 0-49.664l413.952-441.792c6.4-6.848 14.848-10.24 23.296-10.24 0.192 0 0.448 0.128 0.64 0.128s0.448-0.128 0.64-0.128z" />
<glyph unicode="&#xe943;" glyph-name="delete2" d="M575.296 449.472l371.584 369.92c17.536 17.472 17.664 45.824 0.192 63.424s-45.824 17.664-63.36 0.192l-371.712-369.92-368.384 369.792c-17.408 17.536-45.824 17.6-63.36 0.128-17.536-17.536-17.6-45.888-0.128-63.488l368.32-369.728-371.328-369.728c-17.6-17.472-17.664-45.888-0.192-63.424 8.768-8.832 20.224-13.248 31.808-13.248 11.392 0 22.848 4.352 31.616 13.056l371.456 369.792 371.776-373.184c8.768-8.832 20.16-13.184 31.744-13.184 11.456 0 22.848 4.352 31.616 13.056 17.472 17.472 17.536 45.888 0.064 63.424l-371.712 373.12z" />
<glyph unicode="&#xe944;" glyph-name="search2" d="M942.848 99.904l-181.568 181.632c47.040 64 75.264 142.784 75.264 228.16 0 212.992-173.312 386.304-386.24 386.304-212.992 0-386.304-173.312-386.304-386.304s173.312-386.304 386.304-386.304c85.376 0 164.16 28.224 228.16 75.392l181.632-181.568c11.392-11.456 26.432-17.216 41.408-17.216s29.952 5.76 41.344 17.216c22.848 22.848 22.848 59.84 0 82.688zM159.104 509.696c0 160.576 130.624 291.2 291.2 291.2s291.2-130.624 291.2-291.2c0-160.576-130.624-291.2-291.2-291.2s-291.2 130.624-291.2 291.2z" />
<glyph unicode="&#xe945;" glyph-name="sureOutline" d="M958.464 413.312c-4.8-27.52-7.424-55.552-14.464-82.432-44.032-167.36-184.832-295.104-355.712-324.032-16.512-2.88-33.344-4.608-50.048-6.848-17.472 0-35.008 0-52.48 0-2.56 0.512-5.056 1.088-7.616 1.472-28.032 4.8-57.088 6.592-84.032 14.784-177.408 54.272-285.44 172.672-323.072 354.624-3.52 16.768-4.8 33.92-7.040 50.88 0 17.472 0 35.008 0 52.48 0.512 2.816 1.088 5.568 1.536 8.384 4.16 25.536 6.656 51.52 12.8 76.544 41.344 168.704 185.6 301.888 356.416 329.92 16.96 2.816 33.984 4.608 51.008 6.912 17.472 0 35.008 0 52.48 0 2.56-0.512 5.056-1.088 7.616-1.472 27.52-4.672 55.552-7.232 82.432-14.336 168.448-44.416 295.872-184.512 324.864-355.968 2.88-16.512 4.608-33.28 6.848-49.984 0-17.472 0-35.008 0-52.48-0.512-2.816-1.088-5.632-1.536-8.448zM513.088 840.064c-216.32 0.832-392.448-174.464-393.152-391.168-0.704-216.256 174.72-392.384 391.424-392.96 216.192-0.576 392.32 175.104 392.704 391.68 0.32 216-174.656 391.616-390.976 392.448zM752.256 561.408c-99.648-98.688-199.232-197.376-298.88-296-17.856-17.728-32-17.664-50.24 0.192-43.904 43.072-87.808 86.208-131.84 129.152-7.744 7.488-12.672 16-10.688 27.136 4.032 21.504 29.376 30.528 46.336 16.32 5.568-4.736 10.496-10.176 15.68-15.232 33.152-32.448 66.176-64.896 99.328-97.344 1.856-1.792 3.84-3.52 7.552-7.040 2.368 3.072 4.032 5.888 6.336 8.128 92.288 91.584 184.704 183.040 276.992 274.688 6.848 6.848 14.208 11.968 24.448 11.52 11.2-0.448 19.648-5.568 24.384-15.616 4.864-10.304 3.776-20.416-3.392-29.568-1.792-2.304-3.968-4.288-6.016-6.336z" />
<glyph unicode="&#xe946;" glyph-name="removeOutline" d="M954.24 634.816c-24.192 57.216-58.752 108.48-102.848 152.576-44.032 44.096-95.36 78.656-152.576 102.848-59.2 25.088-122.048 37.76-186.816 37.76s-127.616-12.672-186.816-37.696c-57.152-24.256-108.48-58.816-152.576-102.912-44.096-44.032-78.656-95.36-102.848-152.576-25.088-59.136-37.76-122.048-37.76-186.816s12.672-127.68 37.76-186.88c24.192-57.152 58.752-108.416 102.848-152.576 44.032-44.032 95.36-78.656 152.576-102.784 59.2-25.024 122.048-37.76 186.816-37.76s127.616 12.736 186.816 37.76c57.216 24.128 108.48 58.752 152.576 102.784 44.096 44.096 78.656 95.424 102.848 152.576 25.088 59.2 37.76 122.112 37.76 186.88s-12.672 127.68-37.76 186.816v0zM512 34.112c-228.16 0-413.888 185.6-413.888 413.888 0 228.224 185.664 413.888 413.888 413.888s413.888-185.664 413.888-413.888c0-228.224-185.728-413.888-413.888-413.888v0zM661.568 649.344v0l-153.856-154.112-154.112 153.792c-13.376 13.312-34.944 13.312-48.256 0 0 0-0.064 0-0.064 0-13.248-13.376-13.248-35.008 0.064-48.32l154.176-153.792-153.792-154.112c-13.312-13.312-13.312-34.944 0.064-48.32 13.312-13.312 34.944-13.248 48.256 0h0.064l153.728 154.112 154.112-153.728c13.376-13.376 34.944-13.312 48.256 0h0.064c13.312 13.376 13.248 34.944-0.064 48.256l-154.176 153.856 153.792 154.048c13.376 13.376 13.376 35.008 0 48.32-13.312 13.312-34.944 13.312-48.256 0v0z" />
<glyph unicode="&#xe947;" glyph-name="courierList" d="M768 121.728v517.888l-143.168 146.176h-319.488v111.488h441.024l143.104-108.096v-667.456h-121.472zM740.608 873.088l-3.072-96.96 124.224 2.88-121.152 94.080zM716.48 601.472v-600.192h-584.128v746.368h441.152l142.976-146.176zM186.24 70.080h252.352c2.688 0 4.928 12.544 4.928 28.16s-2.24 28.16-4.928 28.16h-252.352c-2.816 0-4.928-12.544-4.928-28.16s2.112-28.16 4.928-28.16zM190.016 174.72h468.8c5.12 0 9.216 12.736 9.216 28.48 0 15.552-4.032 28.288-9.216 28.288h-468.8c-5.056 0-9.152-12.736-9.152-28.288 0-15.68 4.16-28.48 9.152-28.48zM190.016 283.968h468.8c5.12 0 9.216 14.208 9.216 31.616 0 17.344-4.032 31.488-9.216 31.488h-468.8c-5.056 0-9.152-14.208-9.152-31.488 0-17.472 4.16-31.616 9.152-31.616zM189.952 397.312h468.864c5.12 0 9.216 14.080 9.216 31.552 0 17.408-4.032 31.488-9.216 31.488h-468.864c-5.056 0-9.088-14.080-9.088-31.488 0-17.472 4.096-31.552 9.088-31.552zM316.288 567.040h-130.816c-1.344 0-2.496-12.48-2.56-28.032 0-15.488 1.216-28.096 2.56-28.096h130.816c1.344 0 2.56 12.608 2.56 28.096-0.064 15.552-1.28 28.032-2.56 28.032zM555.968 576.512l139.072 0.064-69.632 70.848-69.44 71.040v-141.952z" />
<glyph unicode="&#xe948;" d="M814.496 832h-87.936c-7.52 32-30.4 56.512-60.416 63.072-8.992 34.912-41.12 64.928-80.352 64.928h-152.128c-39.2 0-71.328-30.432-80.32-64.928-30.144-6.976-53.088-31.072-60.512-63.072h-87.84c-59.968 0-108.992-41.216-108.992-101.216v-694.624c0-60 49.024-100.224 108.992-100.224h609.504c59.968 0 113.504 40.672 113.504 100.224v694.624c0 60-53.536 101.216-113.504 101.216zM372.736 856c11.808 0 21.728 0.896 21.728 12.704 0 20.736 16.992 27.296 39.2 27.296h152.128c22.208 0 39.232-6.048 39.232-26.848 0-11.808 9.92-16.704 21.728-16.704 22.208 0 39.232-5.664 39.232-26.464s-17.024-25.984-39.232-25.984h-274.016c-22.208 0-39.232 6.976-39.232 27.776s17.024 28.224 39.232 28.224zM896 36.192c0-35.904-45.6-68.224-81.504-68.224h-609.504c-35.904 0-44.992 32.32-44.992 68.224v694.592c0 35.904 9.088 69.216 44.992 69.216h88.992c10.24-32 41.024-64 78.752-64h274.016c37.888 0 68.768 32 78.88 64h88.864c35.904 0 81.504-33.312 81.504-69.216v-694.592z" />
<glyph unicode="&#xe949;" d="M751.168 224h-479.072c-11.808 0-21.728-20.192-21.728-32s9.92-32 21.728-32h479.072c11.808 0 21.76 20.192 21.76 32s-9.952 32-21.76 32z" />
<glyph unicode="&#xe94a;" d="M272.096 320h339.68c11.808 0 21.76 20.192 21.76 32s-9.952 32-21.76 32h-339.68c-11.808 0-21.728-20.192-21.728-32s9.92-32 21.728-32z" />
<glyph unicode="&#xe94b;" d="M544 586.496c0 11.872-9.632 21.504-21.536 21.504h-244.928c-11.904 0-21.536-9.632-21.536-21.504v-20.96c0-11.904 9.632-21.536 21.536-21.536h244.928c11.904 0 21.536 9.632 21.536 21.536v20.96z" />
<glyph unicode="&#xe94c;" glyph-name="phone" d="M832.224-44.288c-72.48 0-264.416 28.192-518.624 282.4l-13.216 13.184c-306.464 306.496-284.512 522.464-280.352 549.248 2.048 37.856 27.424 78.816 69.92 112.768 34.176 27.328 86.336 53.44 130.016 45.12 51.488-9.728 80.416-34.464 112.992-73.824 24.928-30.272 102.944-133.088 59.744-187.168-1.28-1.664-1.344-1.76-60.864-61.12-3.968-3.968-8.608-14.912-8.64-20.512 0.032-0.032 4.672-75.456 141.088-214.016 138.368-136.224 213.792-140.736 214.528-140.768 4.896 0.064 15.872 4.672 19.84 8.672 14.016 15.136 49.792 53.216 62.848 62.112 36.608 25.28 108.896 15.648 187.424-62.88 51.104-51.104 98.144-131.52 62.72-189.984-29.76-49.344-76-89.088-83.264-95.136-17.6-16.352-53.44-24.352-64.832-25.888-1.568-0.288-12.384-2.208-31.328-2.208zM76.96 792.16c-0.672-4.128-30.816-205.216 264.064-500.096l13.248-13.248c296.48-296.48 498.144-264.448 500.128-264.064 13.088 1.824 30.752 8.032 35.008 11.328l1.568 1.44c0.448 0.384 44.96 37.28 71.424 81.152 16.992 28.064-21.44 86.784-54.176 119.52-55.68 55.68-102.528 64.064-114.176 56.096-6.176-4.512-32.864-31.872-53.92-54.56-15.36-15.328-40.864-26.080-61.44-26.304-9.92 0.224-98.464 3.424-255.072 157.664-154.368 156.768-158.048 245.632-157.984 255.232 0.224 20.576 10.944 46.112 25.536 60.704 0.032 0.032 46.592 46.496 56.512 56.512 4.064 10.848-11.872 57.152-59.104 114.4-26.4 31.904-44.096 47.296-79.392 53.952-19.744 3.776-53.888-9.984-83.296-33.504-28.768-23.008-47.776-51.168-48.448-71.776l-0.48-4.448z" />
<glyph unicode="&#xe94d;" glyph-name="linkMan" d="M1024-64h-1024v131.424l1.568 4.064c19.968 52.352 43.808 89.76 70.88 111.136 66.56 51.936 248.832 134.464 256.576 137.984l20.256 9.152 67.392-128.992 92.896 94.304c-53.824 2.080-106.112 27.104-151.712 72.576-76.352 76.224-117.536 193.056-117.536 264.32 0 106.464 0 328.032 276.96 328.032 277.152 0 277.152-221.568 277.152-328.032 0-115.584-107.872-336.736-277.024-337.056-1.344-0.064-3.072 0.032-4.64 0.064l91.52-92.896 68.928 127.68 20-9.056c7.712-3.456 189.984-86.016 256.256-138.016 28.896-22.56 53.376-57.984 72.736-105.152l1.792-4.32v-137.216zM47.136-16.864h929.792v80.704c-15.872 37.408-34.88 64.832-56.448 81.728l-0.032 0.032c-49.6 38.912-177.28 99.968-226.688 123.008l-136.32-252.576-38.528 113.92 30.112 61.12-37.92 38.464-37.888-38.464 30.368-61.696-44-112.64-131.424 251.584c-49.6-23.104-176.96-84.032-226.656-122.784-19.296-15.296-38.112-45.248-54.4-86.848v-75.552zM517.28 912.896c-212.096 0-229.856-138.784-229.856-280.928 0-62.656 38.816-166.176 103.712-230.976 39.232-39.104 81.568-58.944 125.92-58.944h0.32c135.168 0.256 229.984 188.192 229.984 289.92-0.032 142.112-17.792 280.928-230.080 280.928z" />
<glyph unicode="&#xe94e;" glyph-name="delete" d="M739.328 44.032h-454.656c-40.448 0-73.216 32.768-73.216 73.216v566.272c0 16.384 13.312 29.184 29.184 29.184s29.184-13.312 29.184-29.184v-566.272c0-8.192 6.656-14.848 14.848-14.848h454.144c8.192 0 14.848 6.656 14.848 14.848v566.272c0 16.384 13.312 29.184 29.184 29.184s29.184-13.312 29.184-29.184v-566.272c0.512-40.448-32.768-73.216-72.704-73.216zM871.936 676.352h-719.872c-16.384 0-29.184 13.312-29.184 29.184 0 16.384 13.312 29.184 29.184 29.184h720.384c16.384 0 29.184-13.312 29.184-29.184s-13.312-29.184-29.696-29.184zM434.688 175.616c-16.384 0-29.184 13.312-29.184 29.184v380.928c0 16.384 13.312 29.184 29.184 29.184s29.184-13.312 29.184-29.184v-380.928c0-15.872-13.312-29.184-29.184-29.184zM607.744 175.616c-16.384 0-29.184 13.312-29.184 29.184v380.928c0 16.384 13.312 29.184 29.184 29.184s29.184-13.312 29.184-29.184v-380.928c0.512-15.872-12.8-29.184-29.184-29.184zM570.368 793.6h-116.736c-16.384 0-29.184 13.312-29.184 29.184s13.312 29.184 29.184 29.184h117.248c16.384 0 29.184-13.312 29.184-29.184s-13.312-29.184-29.696-29.184z" />
<glyph unicode="&#xe94f;" glyph-name="upArrow" d="M497.5 831.4l-391.4-391.4c-9.4-9.4-9.4-24.6 0-33.9 9.4-9.4 24.6-9.4 33.9 0l374.4 374.4 371.6-371.5c9.4-9.4 24.6-9.4 33.9 0 4.7 4.7 7 10.8 7 17s-2.3 12.3-7 17l-388.5 388.4c-9.4 9.4-24.6 9.4-33.9 0zM514.4 496.9c-6.4 0-12.5-2.5-17-7l-391.3-391.4c-9.4-9.4-9.4-24.6 0-33.9 9.4-9.4 24.6-9.4 33.9 0l374.4 374.4 371.6-371.5c9.4-9.4 24.6-9.4 33.9 0 4.7 4.7 7 10.8 7 17s-2.3 12.3-7 17l-388.5 388.4c-4.5 4.5-10.6 7-17 7z" />
<glyph unicode="&#xe950;" glyph-name="down" d="M485.398 395.579l26.062-26.118 0.036 0.035 0.119-0.121 26.226 26.168-0.078 0.078 421.102 420.166-26.112 26.169-421.115-420.18-420.181 421.115-26.169-26.112 420.188-421.122zM932.039 527.089l-421.115-420.179-420.18 421.114-26.17-26.112 446.422-447.31 26.13 26.074-0.078 0.077 421.103 420.166z" />
<glyph unicode="&#xe951;" glyph-name="equipment" d="M784 416h-544c-96 0-176-80-176-176s80-176 176-176h16v-64h512v64h16c96 0 176 80 176 176s-80 176-176 176zM320 272h384v-64h-384v64zM112 662.4c3.2-3.2 9.6-3.2 16-3.2 9.6 0 22.4 6.4 25.6 16 67.2 102.4 208 169.6 358.4 169.6s288-64 355.2-166.4c9.6-16 28.8-19.2 44.8-9.6s19.2 28.8 9.6 44.8c-80 118.4-236.8 195.2-409.6 195.2s-332.8-76.8-409.6-201.6c-9.6-12.8-6.4-35.2 9.6-44.8zM742.4 585.6c9.6-16 28.8-19.2 44.8-9.6s19.2 28.8 9.6 44.8c-57.6 83.2-166.4 134.4-284.8 134.4-121.6 0-230.4-54.4-284.8-137.6-9.6-16-6.4-35.2 9.6-44.8 6.4-3.2 12.8-6.4 16-6.4 9.6 0 22.4 6.4 25.6 16 48 67.2 137.6 108.8 233.6 108.8 99.2 0 185.6-41.6 230.4-105.6zM512 595.2c-67.2 0-124.8-28.8-156.8-76.8-9.6-16-6.4-35.2 9.6-44.8 6.4-3.2 12.8-6.4 16-6.4 9.6 0 22.4 6.4 25.6 16 19.2 28.8 57.6 48 102.4 48 41.6 0 83.2-19.2 102.4-44.8 9.6-16 28.8-19.2 44.8-9.6s19.2 28.8 9.6 44.8c-28.8 44.8-89.6 73.6-153.6 73.6z" />
<glyph unicode="&#xe952;" glyph-name="systemName" d="M992.992 197.2c-17.725 17.621-42.156 28.512-69.131 28.512-0.075 0-0.15 0-0.225 0h-91.396c-27.216 0-51.232-11.040-69.392-28.512-17.504-18.144-28.48-42.096-28.48-69.344v-91.36c0-27.232 10.992-51.856 28.48-69.36 18.16-17.52 42.176-28.496 69.392-28.496h91.408c0.086 0 0.187 0 0.288 0 26.948 0 51.354 10.886 69.060 28.501l-0.004-0.004c17.639 17.704 28.544 42.127 28.544 69.097 0 0.092 0 0.185 0 0.277v-0.014 91.36c0 27.248-11.040 51.2-28.544 69.344zM963.152 36.496c0-11.024-4.512-20.752-11.648-27.872-7.087-7.202-16.939-11.664-27.833-11.664-0.014 0-0.027 0-0.041 0h-91.406c-0.011 0-0.024 0-0.036 0-10.89 0-20.738 4.462-27.814 11.659l-0.005 0.005c-7.12 7.12-11.040 16.848-11.040 27.872v91.36c0 11.008 3.92 20.736 11.040 27.84 7.12 7.12 16.832 11.040 27.856 11.040h91.408c11.024 0 20.752-3.92 27.872-11.040 7.12-7.104 11.648-16.848 11.648-27.84v-91.36zM558.032 225.712h-91.424c-27.216 0-51.84-11.040-69.344-28.512-18.176-18.144-28.528-42.096-28.528-69.344v-91.36c0-27.232 10.352-51.856 28.528-69.36 17.689-17.61 42.085-28.497 69.023-28.497 0.113 0 0.226 0 0.339 0.001h91.407c26.576 0 51.184 10.992 69.36 28.496 17.61 17.692 28.497 42.089 28.497 69.029 0 0.116 0 0.232-0.001 0.348v-0.018 91.36c0 27.248-10.992 51.2-28.496 69.344-18.176 17.472-42.784 28.512-69.36 28.512zM596.928 36.496c0-11.024-3.904-20.752-11.040-27.872-7.149-7.107-16.965-11.539-27.816-11.664h-91.448c-0.008 0-0.017 0-0.026 0-10.898 0-20.755 4.462-27.842 11.659l-0.005 0.005c-7.192 7.108-11.65 16.968-11.664 27.869v91.363c0 11.008 4.56 20.736 11.664 27.84 7.12 7.12 16.864 11.040 27.872 11.040h91.424c10.352 0 20.736-3.92 27.84-11.040 7.136-7.104 11.040-16.848 11.040-27.84v-91.36zM627.392 928.832c-18.176 17.504-42.8 28.528-69.36 28.528h-91.424c-27.216 0-51.84-11.008-69.344-28.528-17.626-17.613-28.529-41.952-28.529-68.837 0-0.173 0-0.345 0.001-0.517v0.026-91.376c0-27.216 10.352-51.84 28.528-69.328 17.504-18.16 42.128-28.528 69.344-28.528h91.424c26.56 0 51.184 10.352 69.36 28.528 17.611 17.711 28.496 42.125 28.496 69.082 0 0.086 0 0.173 0 0.259v-0.013 91.376c0 26.576-11.024 51.2-28.496 69.328zM596.928 768.128c0-11.008-3.904-20.72-11.040-27.856-7.155-7.099-16.967-11.528-27.814-11.664h-91.45c-10.905 0.008-20.767 4.468-27.868 11.66l-0.004 0.004c-7.187 7.105-11.644 16.958-11.664 27.852v91.38c0 10.368 4.56 20.736 11.664 27.872 7.307 6.76 17.095 10.931 27.856 11.008h91.44c10.352 0 20.736-3.888 27.84-11.008 7.136-7.136 11.040-17.504 11.040-27.872v-91.376zM117.2 287.936c0-8.432 3.264-15.584 8.432-20.752 5.21-5.202 12.403-8.419 20.348-8.419 0.136 0 0.273 0.001 0.409 0.003h-0.021c7.776 0 15.552 3.232 20.736 8.416 5.184 5.168 8.416 12.32 8.416 20.752v153.568h307.28v-153.584c0-8.416 3.264-15.568 8.416-20.736 5.2-5.184 12.992-9.040 20.768-9.040 8.416 0 15.568 3.856 20.736 9.040 5.202 5.21 8.419 12.403 8.419 20.348 0 0.136-0.001 0.273-0.003 0.409v-0.021 153.584h307.28v-153.568c0-8.432 3.232-15.584 9.088-20.752 5.2-5.184 12.288-9.040 20.72-9.040 7.776 0 14.912 3.856 20.752 9.040 5.2 5.168 8.4 12.32 8.4 20.752v182.72c0 7.792-3.2 15.568-8.4 20.752-5.84 5.184-12.976 8.416-20.752 8.416h-336.416v108.24c0 7.776-3.888 14.912-9.072 20.736-5.21 5.202-12.403 8.419-20.348 8.419-0.136 0-0.273-0.001-0.409-0.003h0.021c-8.072-0.028-15.391-3.231-20.777-8.425l0.009 0.009c-5.152-5.824-8.416-12.96-8.416-20.736v-108.24h-336.432c-8.448 0-15.552-3.232-20.736-8.416-5.168-5.184-9.088-12.96-9.088-20.752h0.656v-182.72h-0.016zM191.76 225.712h-91.424c-27.2 0-51.184-11.040-69.344-28.512-17.504-18.144-28.512-42.096-28.512-69.344v-91.36c0-27.232 11.008-51.856 28.512-69.36 18.16-17.52 42.144-28.496 69.344-28.496h91.424c0.093 0 0.204-0.001 0.315-0.001 26.94 0 51.338 10.886 69.033 28.5l-0.004-0.004c18.16 17.504 28.528 42.128 28.528 69.36v91.36c0 27.248-10.368 51.2-28.528 69.344-17.715 17.62-42.138 28.512-69.105 28.512-0.084 0-0.168 0-0.252 0h0.013zM231.28 36.496c0-11.024-4.528-20.752-11.648-27.872-7.107-7.203-16.976-11.664-27.887-11.664-0.001 0-0.001 0-0.002 0h-91.408c-10.875 0.125-20.691 4.557-27.842 11.666l0.002-0.002c-7.12 7.12-11.040 16.848-11.040 27.872v91.36c0 11.008 3.92 20.736 11.040 27.84 7.104 7.12 16.848 11.040 27.856 11.040h91.424c11.008 0 20.736-3.92 27.888-11.040 7.183-7.1 11.635-16.949 11.648-27.838v-91.362h-0.032z" />
<glyph unicode="&#xe953;" glyph-name="eye" d="M512 172.8c-147.2 0-294.4 57.6-403.2 166.4 0 0 0 0 0 0-32 25.6-44.8 57.6-44.8 96 0 44.8 12.8 76.8 44.8 108.8 224 217.6 588.8 217.6 812.8 0 25.6-32 38.4-64 38.4-108.8 0-38.4-12.8-76.8-44.8-102.4-108.8-108.8-256-160-403.2-160zM147.2 377.6c198.4-198.4 524.8-198.4 723.2 0 19.2 19.2 25.6 38.4 25.6 57.6 0 25.6-6.4 44.8-25.6 57.6-198.4 198.4-524.8 198.4-723.2 0-12.8-12.8-25.6-32-25.6-57.6 0-19.2 12.8-38.4 25.6-57.6v0zM512 294.4c-83.2 0-147.2 64-147.2 147.2 0 76.8 64 147.2 147.2 147.2s147.2-64 147.2-147.2c0-83.2-64-147.2-147.2-147.2zM512 524.8c-44.8 0-83.2-38.4-83.2-83.2s38.4-83.2 83.2-83.2 83.2 38.4 83.2 83.2c0 44.8-38.4 83.2-83.2 83.2z" />
</font>
</defs>
</svg>
